<?xml version="1.0" encoding="UTF-8"?>
<svg xmlns="http://www.w3.org/2000/svg" xmlns:xlink="http://www.w3.org/1999/xlink" width="300px" height="300px" viewBox="0 0 300 300" version="1.1">
<g id="surface1">
<path style="fill:none;stroke-width:2;stroke-linecap:butt;stroke-linejoin:miter;stroke:rgb(100%,100%,100%);stroke-opacity:1;stroke-miterlimit:10;" d="M 286.585833 211.119362 C 286.585833 211.02138 286.680885 210.927318 286.775937 211.02138 C 286.775937 211.119362 286.87099 211.119362 286.87099 211.119362 C 286.966042 211.119362 286.966042 211.213424 286.966042 211.213424 L 286.966042 211.307487 C 287.061094 211.405469 287.061094 211.307487 287.061094 211.499531 C 287.061094 211.691576 287.156146 211.785638 287.251198 211.785638 C 287.34625 211.785638 287.34625 211.785638 287.34625 211.879701 C 287.34625 211.977682 287.34625 211.977682 287.34625 211.977682 L 287.441302 211.977682 C 287.441302 211.977682 287.540156 212.071745 287.540156 212.169727 C 287.540156 212.263789 287.635208 212.263789 287.635208 212.357852 C 287.635208 212.549896 287.635208 212.74194 287.635208 212.836003 C 287.635208 213.216172 287.73026 213.314154 287.825312 213.408216 C 288.015417 213.60026 288.110469 213.788385 288.110469 214.078411 C 288.110469 214.364518 288.110469 214.650625 288.205521 214.83875 C 288.304375 215.128776 288.399427 215.414883 288.399427 215.508945 C 288.589531 215.795052 288.589531 216.175221 288.589531 216.55931 C 288.589531 216.747435 288.589531 216.939479 288.684583 217.131523 C 288.684583 217.225586 288.684583 217.225586 288.684583 217.609674 C 288.684583 217.989844 288.684583 217.989844 288.779635 218.087826 C 288.874687 218.181888 288.874687 218.181888 288.874687 218.467995 C 288.779635 218.946146 288.874687 219.326315 288.96974 219.804466 C 288.96974 219.99651 289.064792 220.090573 289.064792 220.282617 C 289.064792 220.37668 289.163646 220.470742 289.163646 220.568724 C 289.258698 220.662786 289.258698 220.756849 289.258698 220.854831 C 289.163646 220.948893 289.258698 220.948893 289.258698 221.046875 C 289.35375 221.140938 289.448802 221.235 289.448802 221.329063 C 289.543854 221.521107 289.638906 221.713151 289.733958 221.807214 C 289.82901 221.905195 289.924062 221.999258 289.924062 222.09332 C 289.924062 222.191302 289.924062 222.285365 290.019115 222.285365 C 290.019115 222.379427 290.114167 222.379427 290.114167 222.477409 L 290.213021 222.571471 C 290.308073 222.571471 290.308073 222.665534 290.308073 222.763516 C 290.308073 223.143685 290.213021 223.429792 290.019115 223.81388 C 289.82901 224.194049 289.733958 224.672201 289.638906 225.05237 C 289.638906 225.150352 289.638906 225.244414 289.543854 225.244414 C 289.448802 225.244414 289.448802 225.244414 289.448802 225.338477 C 289.448802 225.436458 289.448802 225.530521 289.35375 225.530521 C 289.258698 225.530521 289.163646 225.624583 289.163646 225.722565 C 289.163646 225.816628 289.064792 225.91069 288.96974 226.008672 C 288.684583 226.102734 288.684583 226.102734 288.684583 226.008672 C 288.684583 225.91069 288.589531 225.816628 288.494479 225.816628 C 288.304375 225.816628 288.110469 225.624583 288.110469 225.338477 C 288.110469 225.150352 288.015417 225.05237 287.920365 224.958307 C 287.825312 224.860326 287.825312 224.766263 287.825312 224.574219 C 287.920365 224.288112 287.920365 224.288112 287.73026 224.194049 C 287.540156 224.099987 287.540156 224.099987 287.540156 223.81388 C 287.540156 223.715898 287.540156 223.621836 287.540156 223.527773 C 287.34625 223.429792 287.251198 223.429792 287.061094 223.527773 C 287.061094 223.527773 286.966042 223.527773 286.87099 223.527773 C 286.490781 223.527773 286.201823 224.002005 286.391927 224.194049 C 286.490781 224.288112 286.490781 224.386094 286.490781 224.480156 C 286.490781 224.574219 286.490781 224.766263 286.585833 224.864245 C 286.585833 225.05237 286.680885 225.150352 286.680885 225.244414 C 286.680885 225.338477 286.775937 225.338477 286.775937 225.436458 C 286.87099 225.624583 286.87099 225.816628 286.775937 225.91069 C 286.680885 226.008672 286.680885 226.388841 286.775937 226.388841 C 286.775937 226.486823 286.775937 226.486823 286.775937 226.580885 C 286.775937 226.77293 286.87099 226.866992 287.061094 226.866992 C 287.156146 226.866992 287.251198 226.866992 287.34625 226.961055 L 287.441302 227.059036 L 287.34625 227.345143 C 287.251198 227.63125 287.34625 227.917357 287.441302 228.011419 C 287.540156 228.109401 287.540156 228.109401 287.441302 228.297526 C 287.34625 228.395508 287.34625 228.48957 287.34625 228.583633 C 287.34625 228.681615 287.34625 228.775677 287.251198 228.86974 C 287.156146 228.967721 287.156146 229.061784 287.061094 229.159766 C 286.966042 229.253828 286.966042 229.347891 286.87099 229.347891 C 286.775937 229.347891 286.775937 229.347891 286.775937 229.445872 C 286.775937 229.539935 286.87099 229.72806 286.966042 229.826042 C 287.061094 229.920104 287.156146 230.018086 287.156146 230.018086 C 287.061094 230.112148 286.966042 230.112148 286.87099 230.112148 C 286.296875 230.206211 286.296875 230.206211 286.106771 230.590299 C 286.011719 230.778424 285.916667 231.068451 285.821615 231.256576 C 285.726562 231.44862 285.63151 231.734727 285.532656 231.926771 C 285.342552 232.30694 285.342552 232.498984 285.437604 232.687109 C 285.532656 232.785091 285.532656 232.785091 285.532656 232.879154 L 285.63151 232.977135 C 285.726562 233.071198 285.726562 233.263242 285.726562 233.357305 C 285.726562 233.549349 285.726562 233.643411 285.821615 233.835456 L 285.916667 234.0275 L 285.63151 234.979883 C 285.2475 236.12431 285.152448 236.508398 285.057396 237.080612 C 284.962344 237.366719 284.867292 237.558763 284.77224 237.84487 C 284.673385 237.938932 284.673385 238.130977 284.578333 238.319102 C 284.388229 238.989297 283.814115 240.705938 283.62401 240.992044 C 283.528958 241.184089 283.528958 241.278151 283.528958 241.470195 C 283.528958 241.756302 283.433906 241.948346 283.338854 242.140391 C 282.958646 242.806667 282.76474 243.476862 282.76474 244.237201 C 282.76474 244.621289 282.574635 245.001458 282.384531 245.385547 C 281.810417 246.529974 281.430208 247.674401 281.145052 248.91681 C 281.145052 249.296979 280.951146 249.967174 280.761042 250.441406 C 280.570937 250.919557 280.380833 251.491771 280.285781 251.969922 C 280.285781 252.256029 280.190729 252.448073 280.095677 252.640117 C 279.996823 252.73418 279.901771 252.828242 279.901771 253.020286 C 279.901771 253.212331 279.806719 253.498438 279.711667 253.686563 C 279.521562 253.976589 279.331458 254.45082 279.236406 254.834909 C 279.137552 255.215078 278.947448 255.595247 278.852396 255.787292 C 278.662292 256.17138 278.56724 256.551549 278.472187 256.935638 C 278.377135 257.123763 278.377135 257.40987 278.377135 257.601914 C 278.377135 257.888021 278.377135 258.080065 278.278281 258.366172 C 278.278281 258.460234 278.088177 259.032448 277.993125 259.510599 C 277.803021 260.466901 277.803021 260.655026 277.422812 261.803372 C 277.32776 262.183542 277.228906 262.469648 277.228906 262.853737 C 277.133854 263.520013 276.94375 264.092227 276.563542 264.66444 C 276.46849 264.856484 276.369635 264.950547 276.369635 265.142591 C 276.274583 265.334635 276.274583 265.428698 276.179531 265.620742 C 276.084479 265.906849 275.989427 266.098893 275.894375 266.381081 C 275.799323 266.859232 275.609219 267.337383 275.415312 267.815534 C 275.415312 267.909596 275.415312 267.909596 275.415312 268.007578 C 275.415312 268.101641 275.415312 268.195703 275.32026 268.195703 C 275.130156 268.387747 275.130156 268.579792 275.130156 268.771836 C 275.130156 268.865898 275.130156 268.959961 275.035104 269.057943 C 274.940052 269.152005 274.845 269.152005 274.749948 269.152005 C 274.559844 269.152005 274.46099 269.246068 274.46099 269.34013 C 274.46099 269.532174 274.365937 269.630156 274.175833 269.630156 C 274.080781 269.630156 273.985729 269.630156 273.890677 269.724219 C 273.890677 269.724219 273.795625 269.818281 273.700573 269.818281 L 273.601719 269.916263 C 273.601719 270.010326 273.506667 270.104388 273.506667 270.010326 C 273.506667 269.916263 273.506667 269.916263 273.411615 270.010326 C 273.316562 270.104388 272.936354 270.20237 272.936354 270.104388 C 272.647396 270.010326 272.267187 269.916263 271.982031 270.010326 C 271.217812 270.20237 270.453594 270.488477 269.784427 270.868646 C 269.594323 270.966628 269.499271 271.06069 269.309167 271.154753 C 269.210312 271.154753 268.925156 271.346797 268.735052 271.538841 C 268.449896 271.824948 267.970833 272.013073 267.495573 272.013073 L 266.54125 272.013073 C 266.15724 272.013073 266.15724 272.111055 266.15724 271.91901 C 266.15724 271.730885 266.062187 271.730885 265.681979 271.538841 C 265.491875 271.440859 265.297969 271.346797 265.202917 271.154753 C 265.107865 271.06069 265.012812 270.966628 264.91776 270.868646 C 264.632604 270.680521 264.343646 270.582539 263.963437 270.582539 L 263.199219 270.488477 L 262.625104 270.390495 C 262.530052 270.390495 262.530052 270.390495 262.530052 270.20237 C 262.530052 270.010326 262.435 269.818281 262.339948 269.818281 C 262.244896 269.818281 262.149844 269.724219 262.054792 269.630156 C 261.765833 269.438112 261.765833 269.438112 261.575729 269.438112 C 261.385625 269.438112 261.290573 269.34013 261.195521 269.246068 C 261.100469 269.152005 261.100469 269.057943 261.100469 268.959961 C 261.100469 268.673854 261.005417 268.387747 260.81151 268.101641 C 260.716458 268.007578 260.716458 267.815534 260.716458 267.62349 C 260.716458 267.529427 260.716458 267.337383 260.716458 267.24332 C 260.621406 267.051276 260.431302 266.859232 260.146146 266.671107 C 260.047292 266.671107 259.95224 266.573125 259.95224 266.479062 C 259.95224 266.381081 259.857188 266.287018 259.762135 266.192956 C 259.667083 266.098893 259.667083 266.000911 259.667083 265.812786 C 259.667083 265.714805 259.667083 265.620742 259.667083 265.52276 C 259.667083 265.142591 259.667083 264.762422 259.667083 264.378333 C 259.667083 263.425951 259.667083 263.327969 259.572031 263.139844 C 259.476979 262.947799 259.476979 262.755755 259.572031 262.375586 C 259.572031 262.277604 259.667083 262.183542 259.762135 262.183542 C 259.95224 262.183542 259.95224 262.183542 259.95224 261.803372 L 259.95224 261.419284 L 259.762135 261.22724 C 259.667083 261.133177 259.572031 261.039115 259.476979 261.039115 C 259.381927 261.039115 259.286875 260.84707 259.191823 260.466901 C 259.191823 260.368919 259.096771 260.180794 259.096771 260.082813 C 259.096771 259.98875 259.096771 259.894688 259.096771 259.796706 C 259.096771 259.604661 259.096771 259.510599 258.997917 259.416536 L 258.902865 259.318555 L 258.71276 259.510599 L 258.71276 259.318555 C 258.71276 259.224492 258.617708 259.032448 258.522656 258.938385 C 258.2375 258.746341 258.138646 258.366172 258.043594 258.080065 C 258.043594 257.793958 257.948542 257.507852 257.85349 257.315807 C 257.85349 257.123763 257.758437 256.837656 257.758437 256.645612 C 257.758437 256.457487 257.758437 256.359505 257.663385 256.17138 C 257.568333 256.073398 257.568333 255.885273 257.568333 255.787292 C 257.663385 255.501185 257.758437 255.407122 257.758437 255.407122 C 257.758437 255.407122 257.85349 255.407122 257.663385 255.407122 C 257.473281 255.407122 257.568333 254.45082 257.663385 254.070651 C 257.758437 253.878607 257.758437 253.686563 257.758437 253.498438 C 257.758437 253.306393 257.758437 253.212331 257.758437 253.212331 C 257.758437 253.212331 257.758437 253.306393 257.758437 253.400456 C 257.758437 253.400456 257.85349 253.498438 257.85349 253.5925 C 257.948542 253.686563 257.948542 253.686563 257.948542 253.400456 C 257.948542 253.114349 257.948542 253.020286 258.043594 253.020286 C 258.138646 253.020286 258.2375 252.926224 258.2375 252.828242 C 258.332552 252.828242 258.332552 252.73418 258.427604 252.640117 C 258.522656 252.542135 258.522656 252.542135 258.522656 252.256029 C 258.522656 252.067904 258.522656 251.969922 258.427604 251.777878 C 258.332552 251.589753 258.332552 251.589753 258.427604 251.491771 C 258.522656 251.397708 258.617708 251.303646 258.617708 251.205664 C 258.71276 251.017539 258.71276 251.017539 258.902865 250.919557 C 259.096771 250.919557 259.286875 250.825495 259.476979 250.825495 C 259.667083 250.825495 259.857188 250.825495 259.95224 250.731432 C 260.146146 250.347344 260.241198 249.967174 260.33625 249.489023 C 260.33625 249.202917 260.431302 248.91681 260.526354 248.724766 C 260.621406 248.630703 260.716458 248.438659 260.716458 248.344596 C 260.716458 248.246615 260.716458 248.246615 260.81151 248.246615 C 261.005417 248.152552 261.100469 248.05849 261.195521 247.866445 C 261.195521 247.866445 261.290573 247.674401 261.290573 247.482357 C 261.290573 247.19625 261.385625 247.19625 261.670781 246.910143 C 261.765833 246.816081 261.95974 246.722018 261.95974 246.529974 C 262.054792 246.149805 262.244896 245.765716 262.530052 245.385547 C 262.720156 245.193503 262.815208 245.001458 262.914062 244.715352 C 262.914062 244.621289 262.914062 244.523307 262.720156 244.237201 C 262.625104 244.049076 262.530052 243.857031 262.530052 243.664987 C 262.625104 243.476862 262.625104 243.37888 262.530052 243.284818 C 262.435 243.092773 262.530052 242.998711 262.625104 242.904648 C 262.720156 242.806667 262.720156 242.712604 262.720156 242.614622 C 262.720156 242.614622 262.720156 242.52056 262.815208 242.426497 C 262.914062 242.328516 262.914062 242.234453 262.914062 242.140391 C 262.914062 241.948346 262.914062 241.854284 262.720156 241.66224 C 262.339948 241.184089 262.054792 240.705938 261.95974 240.133724 C 261.95974 239.945599 261.95974 239.753555 261.95974 239.56151 C 262.054792 239.467448 262.054792 239.275404 262.054792 239.181341 C 261.864688 238.605208 261.670781 238.036914 261.290573 237.460781 C 261.100469 237.366719 261.005417 237.080612 261.100469 236.794505 C 261.195521 236.602461 261.195521 236.316354 261.100469 236.12431 C 261.005417 235.646159 261.005417 235.26599 261.005417 234.88582 L 261.005417 234.0275 L 260.81151 233.929518 C 260.621406 233.835456 260.621406 233.737474 260.621406 233.263242 C 260.621406 232.785091 260.621406 232.687109 260.716458 232.593047 C 260.716458 232.498984 260.81151 232.30694 260.81151 232.212878 C 260.906563 232.020833 261.005417 231.828789 261.100469 231.734727 C 261.195521 231.640664 261.290573 231.542682 261.290573 231.354557 C 261.290573 231.162513 261.385625 231.068451 261.480677 230.970469 C 261.670781 230.778424 262.054792 230.112148 262.435 229.539935 C 262.435 229.445872 262.530052 229.347891 262.625104 229.253828 C 262.720156 229.159766 262.720156 229.159766 262.720156 228.86974 C 262.720156 228.775677 262.720156 228.583633 262.815208 228.48957 C 262.914062 228.395508 262.914062 228.395508 262.815208 228.203464 C 262.720156 227.725313 262.720156 227.345143 262.815208 226.866992 C 262.914062 226.77293 262.914062 226.77293 263.389323 226.77293 C 263.674479 226.77293 263.868385 226.77293 264.153542 226.77293 C 264.438698 226.77293 264.53375 226.674948 264.53375 226.866992 C 264.53375 227.059036 264.632604 227.059036 264.632604 226.961055 C 264.632604 226.866992 264.91776 226.674948 265.012812 226.674948 C 265.107865 226.674948 265.297969 226.486823 265.491875 226.294779 C 265.583125 226.102734 265.777031 225.91069 265.967135 225.816628 C 266.062187 225.722565 266.15724 225.722565 266.252292 225.624583 C 266.442396 225.530521 266.54125 225.530521 266.54125 225.722565 C 266.54125 225.816628 266.636302 225.816628 266.636302 225.91069 C 266.636302 226.008672 266.636302 226.102734 266.636302 226.200716 C 266.636302 226.294779 266.54125 226.388841 266.636302 226.388841 C 266.731354 226.388841 267.01651 226.200716 267.01651 226.102734 C 267.01651 226.008672 266.921458 226.008672 266.921458 225.91069 C 266.826406 225.722565 266.826406 225.722565 266.921458 225.722565 L 267.685677 225.530521 C 267.780729 225.530521 267.780729 225.530521 267.780729 225.624583 C 267.780729 225.722565 267.875781 225.722565 267.875781 225.816628 C 267.970833 225.91069 267.970833 225.91069 267.970833 225.722565 C 267.970833 225.150352 268.065885 224.958307 268.16474 224.864245 C 268.259792 224.864245 268.354844 224.766263 268.449896 224.766263 C 268.544948 224.766263 268.64 224.766263 268.735052 224.672201 C 268.925156 224.480156 269.210312 224.480156 269.404219 224.574219 C 269.404219 224.574219 269.499271 224.672201 269.594323 224.672201 C 269.594323 224.766263 269.689375 224.766263 269.689375 224.864245 C 269.784427 224.958307 269.784427 224.958307 269.784427 224.864245 C 269.784427 224.766263 269.784427 224.672201 269.879479 224.672201 C 269.974531 224.672201 270.073385 224.574219 270.168437 224.480156 C 270.26349 224.386094 270.358542 224.386094 270.548646 224.386094 C 270.643698 224.386094 270.833802 224.480156 270.932656 224.574219 C 271.027708 224.672201 271.027708 224.766263 271.12276 224.672201 C 271.217812 224.574219 271.217812 224.574219 271.12276 224.480156 C 271.12276 224.386094 271.12276 224.386094 271.12276 224.288112 C 271.312865 224.002005 271.598021 223.715898 271.883177 223.527773 C 271.982031 223.429792 272.172135 223.335729 272.267187 223.241667 C 272.267187 223.241667 272.36224 223.143685 272.457292 223.143685 C 272.647396 223.049622 272.841302 222.951641 272.936354 222.763516 C 273.126458 222.571471 273.22151 222.477409 273.411615 222.379427 C 273.506667 222.379427 273.601719 222.379427 273.601719 222.285365 C 273.601719 222.191302 274.080781 222.09332 274.080781 222.09332 C 274.175833 222.191302 274.175833 222.191302 274.175833 222.285365 C 274.270885 222.477409 274.365937 222.571471 274.46099 222.571471 L 274.749948 222.665534 C 274.749948 222.665534 274.845 222.665534 274.559844 222.95556 C 274.270885 223.241667 274.270885 223.335729 274.46099 223.335729 C 274.749948 223.335729 274.940052 223.241667 275.130156 223.049622 C 275.130156 222.857578 275.035104 222.665534 274.845 222.477409 C 274.845 222.379427 274.749948 222.379427 274.749948 222.285365 C 274.749948 222.191302 274.654896 222.191302 274.654896 222.09332 C 274.559844 221.905195 274.654896 221.807214 275.035104 221.521107 C 275.415312 221.235 275.415312 221.235 275.415312 221.140938 C 275.415312 221.042956 275.415312 221.042956 275.704271 220.854831 C 275.989427 220.662786 275.894375 220.568724 275.799323 220.568724 C 275.704271 220.568724 275.609219 220.470742 275.609219 220.470742 C 275.799323 220.184635 276.084479 219.898529 276.369635 219.612422 C 276.46849 219.612422 276.46849 219.804466 276.46849 219.898529 C 276.46849 219.99651 276.563542 219.99651 276.563542 220.090573 C 276.563542 220.184635 276.658594 220.184635 276.658594 220.282617 C 276.658594 220.470742 276.563542 220.568724 276.46849 220.662786 C 276.369635 220.854831 276.274583 221.042956 276.274583 221.329063 C 276.274583 221.713151 276.274583 221.713151 276.369635 221.615169 C 276.563542 221.521107 276.658594 221.427044 276.658594 221.235 C 276.658594 221.140938 276.658594 221.046875 276.753646 221.046875 C 276.753646 221.046875 276.848698 221.046875 276.848698 220.948893 L 276.848698 220.854831 C 276.94375 220.662786 277.038802 220.37668 277.133854 220.184635 C 277.133854 220.090573 277.133854 220.090573 277.228906 219.99651 C 277.228906 219.898529 277.32776 219.898529 277.32776 219.804466 C 277.32776 219.804466 277.32776 219.706484 277.422812 219.706484 C 277.517865 219.706484 277.517865 219.706484 277.517865 219.612422 C 277.517865 219.518359 277.707969 219.420378 277.898073 219.420378 L 278.183229 219.518359 C 278.278281 219.518359 278.377135 219.420378 278.472187 219.420378 C 278.662292 219.326315 278.56724 219.232253 278.377135 219.326315 C 278.278281 219.326315 278.088177 219.326315 277.898073 219.326315 L 277.517865 219.326315 L 277.517865 219.134271 C 277.517865 219.040208 277.422812 218.946146 277.422812 218.848164 C 277.32776 218.65612 277.32776 218.562057 277.32776 218.467995 C 277.32776 218.373932 277.422812 218.181888 277.517865 218.087826 C 277.707969 217.989844 277.707969 217.895781 277.707969 217.797799 C 277.707969 217.703737 277.803021 217.703737 277.803021 217.609674 L 277.898073 217.511693 L 277.993125 217.609674 C 278.088177 217.703737 278.278281 217.703737 278.472187 217.609674 C 278.56724 217.41763 278.56724 217.225586 278.472187 217.131523 C 278.377135 217.037461 278.377135 216.845417 278.472187 216.939479 L 278.662292 217.037461 C 278.757344 217.037461 278.757344 217.131523 278.757344 217.225586 C 278.852396 217.323568 278.757344 217.41763 278.757344 217.511693 C 278.662292 217.609674 278.662292 217.703737 278.662292 217.797799 C 278.56724 217.895781 278.56724 217.989844 278.662292 217.895781 C 278.757344 217.609674 278.852396 217.41763 278.852396 217.131523 C 278.852396 217.037461 278.56724 216.747435 278.377135 216.653372 L 278.278281 216.55931 L 278.472187 216.55931 C 278.56724 216.653372 278.757344 216.461328 278.757344 216.461328 C 278.757344 216.461328 278.662292 216.461328 278.56724 216.367266 C 278.472187 216.273203 278.377135 216.273203 278.278281 216.175221 C 278.183229 215.987096 278.183229 215.69707 278.183229 215.414883 C 278.183229 215.316901 278.278281 215.222839 278.278281 214.936732 C 278.278281 214.650625 278.278281 214.650625 278.377135 214.650625 C 278.472187 214.650625 278.472187 214.650625 278.472187 214.552643 C 278.472187 214.458581 278.472187 214.458581 278.56724 214.364518 C 278.662292 214.266536 278.757344 214.364518 278.757344 214.364518 C 278.757344 214.364518 278.852396 214.458581 278.757344 214.458581 C 278.662292 214.458581 278.662292 214.552643 278.757344 214.552643 C 278.757344 214.552643 278.852396 214.552643 278.852396 214.458581 C 278.947448 214.266536 279.0425 214.266536 279.137552 214.458581 C 279.236406 214.552643 279.236406 214.650625 279.331458 214.650625 C 279.331458 214.650625 279.42651 214.744688 279.521562 215.030794 C 279.616615 215.414883 279.806719 215.603008 279.901771 215.603008 C 279.996823 215.603008 280.095677 215.414883 280.095677 215.316901 C 280.095677 215.222839 280.190729 214.936732 280.190729 214.744688 L 280.285781 214.458581 L 280.570937 214.458581 C 280.761042 214.458581 280.856094 214.364518 280.856094 214.364518 C 280.856094 214.364518 280.856094 214.364518 281.046198 214.364518 C 281.240104 214.364518 281.240104 214.266536 281.145052 214.078411 C 281.046198 213.886367 281.046198 213.408216 281.046198 213.408216 C 281.046198 213.408216 281.145052 213.60026 281.145052 213.788385 C 281.145052 213.886367 281.145052 213.98043 281.240104 213.98043 C 281.52526 214.078411 281.810417 214.078411 282.004323 213.98043 C 282.099375 213.98043 282.384531 213.694323 282.384531 213.60026 C 282.384531 213.502279 282.479583 213.314154 282.669688 213.314154 C 282.76474 213.216172 282.76474 213.216172 282.669688 213.216172 C 282.574635 213.122109 282.574635 213.122109 282.479583 213.028047 C 282.384531 212.836003 282.384531 212.549896 282.76474 211.977682 C 283.14875 211.405469 283.053698 211.213424 282.958646 211.02138 C 282.863594 210.829336 282.863594 210.735273 282.863594 210.641211 C 282.863594 210.543229 282.863594 210.449167 282.76474 210.449167 C 282.669688 210.449167 282.669688 210.257122 282.669688 210.16306 C 282.669688 210.068997 282.574635 209.971016 282.384531 209.782891 C 282.194427 209.590846 282.099375 209.496784 282.099375 209.398802 C 282.099375 209.30474 282.194427 209.30474 282.194427 209.30474 C 282.289479 209.30474 282.384531 209.30474 282.479583 209.30474 C 282.574635 209.30474 282.574635 209.30474 282.669688 209.496784 C 282.76474 209.684909 282.863594 209.782891 282.958646 209.684909 C 283.053698 209.496784 283.053698 209.30474 283.053698 209.112695 C 282.958646 209.018633 283.433906 208.634544 283.528958 208.732526 C 283.62401 208.826589 283.62401 208.826589 283.62401 208.732526 C 283.62401 208.634544 283.528958 208.634544 283.722865 208.634544 C 283.912969 208.634544 283.912969 208.540482 283.912969 208.348438 C 283.814115 208.254375 283.912969 208.254375 283.912969 208.160313 C 284.103073 207.968268 284.008021 207.968268 283.814115 207.870286 C 283.62401 207.776224 283.528958 207.682161 283.62401 207.682161 C 283.814115 207.58418 283.912969 207.490117 284.008021 207.396055 C 284.103073 207.298073 284.293177 207.20401 284.962344 207.20401 C 285.057396 207.20401 285.2475 207.396055 285.342552 207.870286 C 285.437604 208.348438 285.437604 208.446419 285.342552 208.348438 C 285.2475 208.348438 285.2475 208.348438 285.152448 208.348438 C 285.057396 208.348438 285.057396 208.348438 284.962344 208.348438 C 284.962344 208.254375 284.867292 208.348438 284.867292 208.446419 C 284.867292 208.540482 284.867292 208.634544 284.962344 208.634544 C 285.057396 208.732526 285.152448 208.732526 285.152448 208.826589 C 285.2475 209.018633 285.437604 209.018633 285.342552 208.826589 C 285.2475 208.634544 285.2475 208.634544 285.342552 208.634544 C 285.437604 208.634544 285.63151 208.826589 285.63151 209.018633 C 285.63151 209.210677 285.726562 209.210677 285.821615 209.210677 C 285.821615 209.210677 285.916667 209.210677 286.011719 209.210677 C 286.201823 209.496784 286.296875 209.782891 286.296875 210.068997 C 286.201823 210.068997 286.296875 210.16306 286.296875 210.257122 C 286.296875 210.355104 286.395729 210.355104 286.296875 210.449167 C 286.201823 210.543229 286.395729 210.641211 286.490781 210.641211 C 286.585833 210.641211 286.585833 210.641211 286.585833 210.829336 C 286.585833 210.927318 286.585833 211.02138 286.585833 211.119362 Z M 286.585833 211.119362 L 286.585833 211.213424 M 113.438958 0.936706 C 112.67474 1.222813 112.005573 1.508919 111.241354 1.795026 C 110.572187 2.175195 109.811771 2.36724 109.047552 2.36724 C 108.56849 2.273177 107.998177 2.273177 107.519115 2.465221 C 106.754896 2.653346 105.994479 2.559284 105.325312 2.175195 C 103.701823 1.508919 103.511719 1.508919 103.511719 2.081133 C 103.511719 2.653346 101.983281 2.559284 101.314115 2.081133 C 100.64875 1.602982 100.26474 1.602982 99.789479 2.081133 C 99.310417 2.36724 98.740104 2.653346 98.16599 2.653346 C 97.591875 2.751328 97.116615 2.939453 96.637552 3.131497 C 96.257344 3.417604 95.112917 3.511667 95.112917 3.22556 C 94.538802 2.939453 93.964687 2.751328 93.299323 2.653346 C 91.675833 2.36724 90.911615 2.36724 87.379479 2.845391 C 86.61526 2.939453 86.235052 2.845391 86.235052 2.653346 C 86.235052 2.175195 85.75599 2.36724 85.090625 3.037435 C 84.421458 3.703711 84.51651 3.801693 82.702917 3.801693 C 79.075729 3.801693 75.82875 4.754076 74.11401 6.282591 C 73.060833 7.234974 72.680625 7.332956 72.490521 6.854805 C 72.395469 6.568698 72.201562 6.66276 71.726302 6.948867 C 71.346094 7.234974 70.867031 7.332956 70.387969 7.427018 C 69.722604 7.619063 69.053438 7.905169 68.574375 8.38332 C 67.334896 9.429766 65.806458 10.099961 64.186771 10.005898 C 62.848437 10.099961 62.563281 10.005898 61.989167 9.527747 C 61.418854 9.049596 61.224948 8.955534 60.559583 9.241641 C 59.316302 9.527747 57.981771 9.62181 56.73849 9.527747 C 53.875521 9.527747 53.685417 9.429766 52.826146 8.76349 C 52.156979 8.285339 51.871823 7.807188 51.871823 7.332956 C 51.871823 6.66276 51.871823 6.66276 50.632344 6.854805 C 50.153281 6.948867 49.582969 7.046849 49.103906 7.140911 C 48.529792 7.905169 48.149583 8.669427 47.769375 9.62181 C 47.19526 10.958281 46.526094 12.20069 45.666823 13.43918 C 44.617448 14.873633 44.427344 15.061758 41.374271 16.304167 C 38.701406 17.448594 37.937188 17.926745 36.40875 19.263216 C 34.880312 20.599688 34.690208 20.979857 34.690208 21.650052 C 34.595156 22.41431 34.214948 23.080586 33.735885 23.750781 C 32.971667 24.609102 32.591458 25.659466 32.591458 26.803893 C 32.496406 28.140365 32.496406 28.712578 32.781562 28.998685 C 32.971667 29.190729 33.070521 29.476836 33.165573 29.762943 C 33.165573 30.241094 29.918594 33.294206 27.914896 34.916784 C 27.055625 35.488997 26.00625 36.347318 25.527188 36.731406 C 24.858021 37.205638 24.192656 37.491745 22.28401 37.683789 C 19.991354 37.969896 18.17776 38.640091 18.272813 39.212305 C 18.272813 39.404349 18.17776 39.592474 18.082708 39.690456 C 17.797552 40.262669 17.607448 40.928945 17.413542 41.501159 C 16.843229 43.315781 16.748177 43.409844 14.740677 44.55819 C 13.406146 45.224466 13.216042 45.510573 12.356771 47.133151 C 11.877708 48.183516 11.4975 49.327943 11.307396 50.476289 C 11.11349 52.098867 11.307396 51.906823 8.250521 54.485703 C 7.680208 54.959935 7.106094 55.532148 6.630833 56.202344 L 6.341875 56.774557 L 6.91599 56.108281 L 7.486302 55.63013 L 6.91599 56.488451 C 6.151771 57.824922 5.387552 59.255456 4.81724 60.689909 C 4.623333 61.164141 4.338177 61.642292 3.859115 61.928398 C 3.478906 62.120443 3.098698 62.500612 2.904792 62.884701 C 2.334479 64.601341 2.045521 66.415964 2.045521 68.324648 C 2.239427 68.704818 2.334479 68.610755 2.80974 68.038542 L 3.383854 67.274284 L 4.053021 68.324648 C 4.623333 69.375013 5.102396 69.755182 5.102396 69.088906 C 5.102396 68.896862 5.2925 69.182969 5.577656 69.66112 C 6.246823 70.805547 6.246823 72.522188 5.672708 72.334063 C 5.387552 72.236081 5.197448 72.334063 5.102396 72.620169 C 5.007344 72.906276 5.007344 73.09832 5.197448 73.192383 C 5.387552 73.286445 5.387552 73.47849 5.197448 73.956641 C 5.007344 74.434792 5.007344 74.720898 5.482604 75.19513 C 6.151771 75.959388 6.436927 76.817708 6.630833 79.302526 C 6.820937 81.113229 6.820937 81.399336 5.866615 83.692109 C 5.2925 84.930599 4.912292 86.365052 4.718385 87.701523 C 4.623333 89.610208 3.66901 91.424831 2.144375 92.569258 C 0.901094 93.713685 0.71099 93.905729 1.380156 93.905729 C 2.429531 94.285898 3.19375 95.144219 3.573958 96.194583 C 3.573958 96.578672 3.764062 96.766797 4.053021 96.766797 C 4.338177 96.766797 4.433229 96.864779 4.148073 97.052904 C 3.66901 97.531055 3.764062 97.817161 4.148073 97.723099 C 4.433229 97.629036 4.433229 97.723099 4.433229 97.915143 C 4.433229 98.103268 4.623333 98.487357 5.197448 98.773464 C 5.771562 99.05957 5.961667 99.251615 5.577656 99.251615 C 5.197448 99.251615 4.912292 99.05957 4.623333 98.867526 C 4.243125 98.487357 4.148073 98.487357 3.859115 98.965508 C 3.66901 99.251615 3.66901 99.537721 3.764062 99.631784 C 3.859115 100.29806 3.957969 100.874193 3.859115 101.540469 C 3.764062 103.163047 3.859115 103.449154 4.433229 103.833242 C 4.718385 104.021367 5.007344 104.213411 5.2925 104.307474 C 5.482604 104.307474 5.577656 104.593581 5.577656 104.883607 C 5.577656 105.169714 5.771562 105.45582 5.866615 105.741927 C 6.725885 106.028034 7.680208 106.028034 8.539479 105.741927 C 8.919688 105.549883 9.01474 105.643945 8.824635 105.83599 C 8.539479 106.216159 9.109792 106.600247 9.969062 106.69431 C 10.543177 106.69431 10.543177 106.792292 10.064115 106.886354 C 9.778958 106.980417 9.493802 107.078398 9.204844 107.266523 C 8.824635 107.55263 8.824635 108.128763 9.204844 107.842656 C 9.39875 107.744674 9.493802 107.842656 9.493802 108.128763 C 9.493802 108.602995 10.064115 109.27319 10.543177 109.27319 C 10.638229 109.27319 10.828333 109.461315 10.923385 109.751341 C 11.11349 110.417617 11.592552 110.417617 11.97276 109.845404 C 12.261719 109.461315 12.261719 109.461315 12.356771 110.13151 C 12.356771 110.609661 12.451823 110.797786 12.641927 110.703724 C 12.832031 110.609661 12.832031 110.609661 12.736979 110.797786 C 12.641927 110.989831 12.736979 111.373919 13.025937 111.754089 C 13.98026 112.804453 15.124687 113.756836 16.459219 114.329049 C 16.843229 114.427031 17.033333 114.713138 16.938281 114.999245 C 16.938281 115.379414 17.128385 115.763503 17.413542 116.049609 C 17.797552 116.335716 17.987656 116.813867 18.17776 117.194036 C 18.272813 117.574206 18.462917 117.76625 18.656823 117.76625 C 18.846927 117.76625 18.751875 117.958294 18.561771 118.338464 C 18.367865 118.722552 18.367865 118.914596 18.751875 119.294766 C 19.132083 119.674935 19.227135 119.674935 18.561771 119.48681 L 17.797552 119.294766 L 18.272813 120.059023 C 18.561771 120.533255 18.941979 120.823281 19.322187 121.109388 C 19.706198 121.297513 19.896302 121.58362 19.896302 121.775664 C 19.896302 121.967708 20.086406 122.347878 20.470417 122.633984 C 21.040729 123.112135 21.040729 123.206198 20.565469 123.206198 C 19.706198 123.206198 19.611146 123.684349 20.565469 123.876393 C 22.090104 124.256563 25.911198 126.165247 26.386458 126.835443 C 26.770469 127.215612 27.245729 127.599701 27.724792 127.791745 C 28.295104 128.077852 28.774167 128.458021 28.774167 128.552083 C 28.774167 128.650065 29.344479 129.030234 30.013646 129.316341 C 31.256927 129.986536 32.306302 130.844857 33.355677 131.895221 C 34.690208 133.231693 36.313698 134.37612 38.03224 135.140378 L 41.279219 136.664974 C 41.944583 137.049063 42.134687 137.049063 44.23724 136.190742 C 45.09651 135.904635 45.955781 135.618529 46.815052 135.23444 C 47.480417 134.662227 49.678021 134.184076 52.731094 133.803906 C 56.073125 133.419818 60.654635 133.419818 60.654635 133.803906 C 60.654635 133.897969 61.129896 133.995951 61.799062 133.995951 C 62.563281 134.090013 63.232448 134.184076 63.897812 134.37612 C 65.711406 135.042396 65.905312 135.042396 66.665729 134.568164 C 67.334896 134.184076 68.099115 133.803906 68.958385 133.611862 C 70.197865 133.231693 71.536198 132.753542 72.680625 132.181328 C 73.73 131.703177 74.779375 131.319089 75.82875 130.938919 C 76.307812 130.844857 76.783073 130.750794 76.783073 130.55875 C 76.592969 130.080599 76.21276 129.70043 75.733698 129.508385 C 75.543594 129.508385 75.543594 129.410404 75.543594 129.316341 C 75.82875 129.030234 76.783073 129.70043 76.881927 130.272643 C 76.976979 130.844857 77.931302 130.750794 78.790573 129.888555 C 79.649844 129.030234 82.223854 128.458021 85.470833 128.458021 C 87.379479 128.458021 88.23875 128.363958 88.717812 128.077852 C 89.193073 127.791745 89.383177 127.693763 89.478229 127.791745 C 89.577083 127.885807 89.478229 127.97987 89.288125 127.97987 C 89.098021 127.97987 89.002969 128.077852 89.002969 128.171914 C 89.002969 128.265977 89.672135 128.363958 90.531406 128.458021 C 92.246146 128.363958 93.964687 129.222279 94.823958 130.750794 C 95.112917 131.225026 95.493125 131.703177 95.683229 131.703177 C 95.778281 131.703177 95.873333 131.703177 95.873333 131.79724 C 95.873333 131.895221 95.873333 131.895221 95.873333 131.989284 C 95.778281 132.181328 95.972187 132.369453 96.257344 132.369453 C 96.732604 132.467435 96.732604 132.561497 96.447448 132.945586 C 96.162292 133.325755 96.162292 133.325755 96.447448 133.419818 C 96.637552 133.611862 96.732604 133.803906 96.732604 133.995951 C 97.021562 135.328503 97.880833 136.476849 99.215365 137.049063 C 99.500521 137.143125 99.789479 137.143125 99.884531 136.951081 C 99.979583 136.762956 100.26474 136.762956 100.553698 136.857018 C 101.028958 136.951081 101.504219 136.951081 101.983281 136.857018 C 102.7475 136.664974 102.842552 136.570911 102.557396 136.284805 C 102.173385 135.806654 102.557396 135.806654 103.032656 136.190742 C 103.226562 136.476849 103.416667 136.476849 103.606771 136.190742 C 104.085833 135.806654 104.656146 135.806654 104.466042 136.284805 C 104.37099 136.476849 104.466042 136.664974 104.561094 136.664974 C 104.751198 136.664974 104.941302 136.476849 105.036354 136.284805 C 105.135208 135.998698 105.705521 135.904635 106.948802 135.904635 C 107.903125 135.904635 108.762396 135.712591 108.762396 135.618529 C 108.9525 135.23444 109.332708 135.328503 109.332708 135.806654 C 109.332708 136.09276 109.621667 136.190742 110.096927 136.190742 C 110.572187 136.190742 110.861146 136.378867 111.146302 137.049063 C 111.625365 138.099427 113.054948 138.957747 113.629062 138.573659 C 113.914219 138.385534 114.009271 138.385534 114.199375 138.573659 C 114.393281 138.765703 114.199375 138.863685 114.104323 138.863685 C 113.629062 138.863685 113.819167 139.529961 114.678437 140.674388 L 115.442656 141.724753 L 115.058646 143.633438 C 114.868542 144.491758 114.77349 145.350078 114.77349 146.212318 C 114.77349 146.878594 114.583385 147.548789 114.199375 148.121003 C 113.15 149.935625 112.959896 150.221732 113.438958 150.409857 C 113.724115 150.601901 113.819167 150.888008 113.819167 151.174115 C 113.819167 151.652266 113.629062 151.84431 113.15 151.938372 L 112.484635 152.130417 L 113.054948 153.082799 C 113.340104 153.560951 113.438958 153.847057 113.248854 153.658932 C 112.67474 153.082799 112.579687 153.274844 112.579687 154.803359 C 112.579687 156.139831 112.484635 156.327956 111.815469 156.998151 C 111.146302 157.664427 110.861146 157.664427 110.671042 157.476302 C 110.477135 157.37832 110.287031 157.284258 110.096927 157.284258 C 109.811771 157.284258 110.572187 159.000898 111.146302 159.859219 C 111.431458 160.243307 111.625365 160.623477 111.720417 161.101628 C 111.720417 161.19569 112.005573 161.387734 112.290729 161.387734 C 112.579687 161.387734 112.769792 161.485716 112.579687 161.673841 C 112.100625 162.151992 112.195677 162.344036 113.15 162.818268 C 113.629062 163.010313 113.724115 163.104375 113.438958 163.010313 L 112.864844 162.818268 L 113.53401 163.868633 C 114.104323 164.730872 114.393281 164.918997 114.868542 164.824935 C 115.1575 164.730872 115.347604 164.824935 115.347604 164.918997 C 115.347604 165.01306 115.442656 165.205104 115.63276 165.205104 C 115.822865 165.205104 115.822865 165.303086 115.347604 165.205104 C 114.298229 165.205104 114.583385 165.589193 116.301927 166.827682 C 117.351302 167.689922 118.305625 168.642305 119.164896 169.692669 C 119.929115 170.645052 120.693333 171.507292 121.552604 172.365612 C 122.122917 172.937826 122.601979 173.510039 122.982187 174.176315 C 123.267344 174.654466 123.651354 175.516706 124.031562 176.088919 C 124.320521 176.563151 124.510625 177.135365 124.510625 177.80556 C 124.795781 179.142031 125.274844 180.38444 125.940208 181.62293 C 126.609375 182.959401 127.18349 184.295872 127.65875 185.726406 C 127.947708 186.588646 128.327917 187.446966 128.708125 188.211224 C 129.761302 190.213971 129.761302 190.978229 128.708125 191.644505 C 128.327917 191.836549 127.947708 192.220638 127.947708 192.408763 C 128.708125 194.795599 129.662448 197.084453 130.715625 199.283164 C 131.285937 200.235547 131.285937 200.427591 131.095833 202.814427 C 130.810677 205.675495 130.331615 206.631797 128.613073 207.490117 C 128.04276 207.776224 127.563698 208.254375 127.563698 208.446419 C 127.373594 208.920651 127.088437 209.398802 126.609375 209.782891 C 126.134115 210.16306 125.750104 210.735273 125.750104 211.405469 C 125.750104 211.879701 125.655052 212.263789 125.464948 212.74194 C 125.179792 213.314154 125.08474 213.98043 124.985885 214.552643 C 124.700729 216.653372 123.746406 219.420378 123.07724 220.184635 C 122.411875 220.948893 122.506927 220.948893 122.697031 222.285365 C 122.792083 222.857578 122.887135 223.429792 122.792083 224.099987 C 122.697031 224.288112 122.697031 224.194049 122.697031 223.907943 C 122.697031 223.621836 122.506927 223.429792 122.411875 223.429792 C 122.316823 223.429792 122.217969 223.621836 122.316823 223.907943 C 122.506927 224.860326 122.601979 225.816628 122.601979 226.77293 C 122.506927 228.109401 122.697031 229.445872 123.267344 230.590299 C 123.651354 231.354557 124.126615 232.118815 124.795781 232.785091 C 125.369896 233.357305 125.845156 234.0275 126.229167 234.693776 C 126.609375 235.360052 127.278542 236.508398 127.753802 237.366719 C 128.327917 238.225039 128.708125 239.181341 129.092135 240.133724 C 129.472344 241.184089 130.046458 242.140391 130.620573 243.092773 C 131.095833 243.664987 131.479844 244.335182 131.765 245.001458 C 131.860052 245.385547 132.145208 245.671654 132.430365 245.95776 C 132.909427 246.33793 133.289635 246.816081 133.578594 247.388294 C 134.148906 248.246615 134.532917 250.253281 134.148906 250.061237 C 133.958802 249.967174 133.958802 251.017539 134.053854 252.828242 C 134.148906 255.215078 134.24776 255.979336 134.818073 256.935638 C 135.297135 258.080065 135.582292 259.224492 135.677344 260.368919 C 136.057552 263.327969 136.251458 264.378333 136.631667 265.048529 C 136.821771 265.334635 136.916823 265.620742 136.821771 265.714805 C 136.536615 265.906849 137.58599 268.387747 138.635365 270.104388 C 139.688542 271.632904 140.928021 272.875313 142.357604 273.925677 C 142.931719 274.113802 144.076146 276.120469 144.935417 278.217279 C 145.699635 280.510052 146.844062 282.610781 148.182396 284.613529 C 148.752708 285.471849 149.326823 286.428151 149.805885 287.380534 C 150.566302 289.195156 150.091042 290.817734 148.851562 290.817734 C 148.182396 290.817734 148.182396 291.581992 149.041667 292.34625 C 149.326823 292.538294 149.516927 292.824401 149.710833 293.20457 C 149.805885 293.588659 149.99599 293.874766 150.281146 294.160872 C 150.760208 294.635104 150.85526 295.305299 150.47125 295.877513 C 150.281146 296.257682 150.281146 296.735833 150.281146 297.119922 C 150.47125 297.692135 151.140417 297.594154 151.330521 297.02194 C 151.520625 296.449727 152.189792 296.355664 152.379896 297.02194 C 152.379896 297.500091 152.668854 297.594154 153.334219 297.692135 C 153.813281 297.692135 154.288542 297.978242 154.387396 298.166367 C 154.672552 299.028607 157.820677 299.694883 158.204687 299.028607 C 158.584896 298.358411 160.7825 297.786198 162.786198 297.786198 C 164.789896 297.786198 164.98 297.692135 165.934323 297.119922 C 166.888646 296.547708 167.177604 296.355664 169.656562 296.355664 C 174.143021 296.257682 174.812187 296.257682 176.245573 296.641771 C 177.485052 296.927878 177.770208 296.927878 178.154219 296.641771 C 178.724531 296.355664 179.393698 296.16362 180.062865 296.257682 C 181.397396 296.257682 181.492448 296.257682 181.5875 295.685469 C 181.686354 295.113255 181.781406 295.113255 183.595 295.113255 C 184.929531 295.207318 186.267865 294.827148 187.31724 294.160872 C 190.180208 292.632357 192.758021 290.723672 195.046875 288.52888 C 196.191302 287.478516 197.339531 286.522214 198.483958 285.569831 C 200.67776 283.563164 202.491354 281.27431 203.92474 278.69543 C 204.78401 277.072852 206.118542 275.834362 207.646979 274.87806 C 209.365521 273.733633 209.745729 273.161419 210.224792 270.966628 C 210.414896 270.010326 210.700052 269.057943 211.084062 268.101641 C 211.369219 267.529427 211.464271 266.957214 211.464271 266.381081 C 211.369219 265.714805 211.369219 264.950547 211.464271 264.284271 C 211.654375 262.755755 211.559323 262.563711 211.179115 262.277604 C 210.795104 261.991497 210.700052 261.897435 211.084062 261.133177 C 211.654375 259.98875 212.513646 259.510599 216.33474 258.26819 C 218.623594 257.507852 219.866875 256.935638 220.627292 256.265443 C 222.060677 255.121016 223.015 252.828242 222.060677 253.212331 C 221.676667 253.306393 221.676667 253.212331 221.775521 252.256029 C 221.870573 251.589753 222.060677 251.017539 222.345833 250.441406 C 222.634792 249.967174 222.634792 249.583086 222.440885 249.489023 C 222.250781 249.391042 222.155729 248.724766 222.250781 247.866445 C 222.345833 246.33793 221.870573 245.765716 221.676667 246.910143 C 221.581615 247.294232 221.486562 246.816081 221.581615 246.051823 C 221.581615 245.193503 221.39151 244.335182 221.011302 243.570924 C 220.722344 242.998711 220.53224 242.328516 220.627292 241.756302 C 220.722344 241.090026 220.627292 240.803919 219.958125 240.133724 C 219.29276 239.467448 219.102656 239.275404 219.197708 238.130977 C 219.29276 236.986549 219.387812 236.794505 219.768021 236.794505 C 220.722344 236.316354 221.486562 235.646159 222.155729 234.88582 C 222.919948 234.0275 223.874271 233.357305 224.828594 232.785091 C 225.877969 232.212878 226.73724 231.44862 227.406406 230.492318 C 228.265677 229.445872 229.22 228.583633 230.174323 227.725313 C 231.987917 226.674948 233.991615 225.816628 235.995312 225.338477 C 236.569427 225.244414 237.044687 224.958307 237.52375 224.574219 C 238.097865 224.099987 238.668177 223.715898 239.337344 223.429792 C 239.812604 223.241667 240.291667 222.857578 240.576823 222.477409 C 241.341042 221.235 242.200312 219.99651 243.249687 218.946146 C 244.299062 217.989844 244.968229 214.552643 244.20401 214.266536 C 244.013906 214.172474 243.918854 213.886367 244.013906 213.60026 C 244.108958 213.314154 244.013906 213.122109 243.918854 213.122109 C 243.72875 212.263789 243.633698 211.405469 243.633698 210.641211 C 243.534844 208.826589 243.439792 208.160313 243.249687 208.254375 C 243.059583 208.348438 243.154635 208.062331 243.439792 207.776224 C 243.72875 207.490117 243.823802 207.20401 243.633698 206.917904 C 243.34474 206.059583 243.249687 205.103281 243.154635 204.150898 C 242.964531 202.90849 243.059583 201.764063 243.34474 200.521654 C 243.534844 199.855378 243.633698 199.377227 243.534844 199.283164 C 243.439792 199.185182 243.34474 198.993138 243.439792 198.805013 C 243.633698 198.326862 242.675573 197.374479 241.24599 196.51224 C 240.865781 196.324115 240.481771 196.038008 240.101562 195.845964 C 240.00651 194.701536 239.717552 193.459128 239.242292 192.408763 C 239.048385 192.220638 238.953333 191.930612 238.858281 191.742487 C 238.763229 191.45638 238.668177 191.072292 238.478073 190.786185 C 238.189115 190.213971 238.189115 189.833802 238.478073 188.685456 C 238.763229 187.541029 238.763229 187.254922 238.383021 186.682708 C 237.99901 186.110495 237.99901 185.918451 238.478073 185.154193 C 238.763229 184.774023 238.953333 184.393854 239.048385 183.915703 C 238.668177 183.245508 238.189115 182.673294 237.618802 182.195143 C 236.949635 181.62293 236.474375 180.956654 236.090365 180.192396 C 236.090365 179.334076 236.280469 178.475755 236.664479 177.711497 C 237.044687 176.849258 237.333646 175.990938 237.618802 175.132617 C 237.713854 174.752448 237.99901 174.466341 238.287969 174.274297 C 238.668177 174.176315 239.242292 173.223932 240.101562 171.40931 C 240.481771 170.456927 241.055885 169.500625 241.626198 168.642305 C 241.816302 168.356198 241.915156 167.972109 241.816302 167.689922 C 241.72125 166.73362 242.390417 165.875299 243.34474 165.589193 C 244.20401 165.397148 245.922552 163.868633 245.732448 163.394401 C 245.732448 163.202357 245.8275 163.104375 246.112656 163.104375 C 246.781823 163.104375 247.45099 162.344036 248.690469 160.243307 C 249.834896 158.428685 254.610312 153.180781 258.043594 150.12375 C 259.476979 148.787279 261.195521 147.740833 262.914062 146.784531 C 265.202917 145.640104 265.872083 145.067891 268.925156 142.108841 C 272.936354 138.099427 274.46099 136.476849 275.130156 135.23444 C 275.799323 134.090013 276.46849 133.039648 277.228906 131.989284 C 277.898073 131.036901 278.56724 130.080599 279.0425 129.030234 C 279.137552 128.650065 279.236406 128.171914 279.331458 127.791745 C 279.616615 127.027487 279.996823 126.263229 280.475885 125.593034 C 281.046198 124.734714 281.52526 123.876393 282.004323 122.920091 C 282.194427 122.347878 282.574635 121.873646 282.958646 121.489557 C 283.528958 120.823281 284.008021 120.153086 284.293177 119.294766 C 284.673385 118.436445 285.152448 117.672188 285.726562 117.005911 C 286.201823 116.241654 286.395729 115.379414 286.490781 114.521094 C 286.585833 113.662773 286.87099 112.898516 287.156146 112.134258 C 287.635208 111.562044 288.015417 108.795039 287.635208 108.602995 C 287.441302 108.508932 287.540156 108.030781 287.825312 107.266523 C 288.110469 106.502266 288.205521 105.930052 288.110469 105.83599 C 287.635208 105.643945 287.156146 105.45582 286.680885 105.45582 C 285.532656 105.263776 285.437604 105.357839 284.673385 106.028034 C 284.293177 106.502266 283.722865 106.792292 283.243802 106.980417 C 282.863594 107.078398 281.905469 107.364505 281.046198 107.55263 C 279.996823 107.842656 278.947448 107.936719 277.898073 108.030781 C 277.133854 108.030781 276.369635 108.128763 275.609219 108.41487 C 274.940052 108.700977 274.175833 108.700977 273.411615 108.602995 C 271.982031 108.41487 271.788125 108.508932 270.073385 109.461315 L 268.354844 110.797786 L 266.826406 110.323555 L 265.297969 109.939466 L 263.963437 110.703724 C 263.199219 111.181875 262.339948 111.467982 261.385625 111.754089 C 260.621406 112.040195 259.762135 111.946133 258.997917 111.562044 C 258.2375 111.181875 257.473281 110.609661 256.994219 109.939466 L 255.564635 108.222826 C 255.085573 107.650612 254.800417 107.55263 253.462083 107.55263 C 251.743542 107.55263 251.842396 107.458568 253.846094 106.502266 C 255.370729 105.741927 255.659687 105.45582 255.180625 104.307474 C 254.895469 103.449154 253.751042 102.01862 253.367031 102.01862 C 252.796719 102.112682 252.50776 101.924557 252.50776 101.540469 C 252.50776 101.348424 252.127552 100.968255 251.743542 100.874193 C 251.268281 100.776211 250.979323 100.396042 250.789219 99.917891 C 250.40901 98.965508 249.644792 98.103268 248.595417 97.723099 C 248.021302 97.34293 247.546042 96.864779 247.162031 96.292565 C 246.591719 95.144219 245.44349 94.285898 244.108958 94.093854 C 242.964531 93.905729 241.531146 93.235534 241.531146 92.949427 C 241.436094 92.66332 241.24599 92.377214 241.055885 92.185169 C 240.766927 91.899063 240.576823 91.612956 240.386719 91.326849 C 240.196615 90.754635 239.6225 91.518893 239.812604 92.185169 C 240.00651 92.855365 239.907656 92.761302 239.527448 91.997044 C 239.337344 91.612956 239.14724 91.232786 238.858281 90.94668 C 238.383021 90.660573 237.903958 89.22612 237.52375 87.12931 C 237.13974 85.220625 237.044687 84.742474 235.615104 81.877487 C 235.136042 80.73306 234.565729 80.062865 234.371823 80.062865 C 233.80151 79.776758 233.227396 79.396589 232.752135 78.918438 C 232.273073 78.440286 231.70276 77.966055 231.033594 77.679948 C 230.649583 77.487904 230.364427 77.103815 230.174323 76.723646 C 229.69526 74.434792 229.410104 72.047956 229.410104 69.755182 C 229.505156 69.375013 229.410104 68.896862 229.22 68.610755 C 228.740937 68.132604 228.740937 67.654453 229.22 68.038542 C 229.980417 68.704818 229.885365 68.038542 229.121146 67.180221 C 228.645885 66.604089 228.265677 65.937813 228.170625 65.173555 C 227.976719 64.315234 227.691562 63.837083 226.547135 62.786719 C 225.877969 62.120443 225.11375 61.548229 224.254479 61.070078 C 223.015 60.113776 222.155729 58.683242 222.060677 57.154727 C 222.060677 56.296406 222.060677 56.202344 222.729844 56.394388 C 223.110052 56.488451 223.395208 56.488451 223.395208 56.394388 C 223.015 55.916237 222.634792 55.532148 222.155729 55.151979 C 221.296458 54.387721 220.627292 53.435339 220.152031 52.384974 C 219.672969 51.428672 218.623594 49.519987 217.764323 48.183516 C 216.905052 46.847044 216.239687 45.41651 215.570521 43.985977 C 215.281562 43.123737 214.901354 42.265417 214.32724 41.501159 C 213.756927 40.74082 213.756927 40.548776 214.042083 40.356732 C 214.32724 40.164688 214.137135 39.878581 213.182812 39.02026 C 212.513646 38.353984 211.848281 37.589727 211.274167 36.825469 C 210.98901 36.445299 210.700052 36.061211 210.414896 35.681042 C 210.224792 35.58306 210.224792 35.296953 210.319844 35.108828 C 210.319844 34.630677 210.224792 34.246589 209.939635 33.866419 C 209.365521 32.914036 209.270469 32.051797 209.650677 31.76569 C 209.840781 31.671628 209.939635 31.863672 209.939635 32.051797 C 210.224792 32.816055 210.605 33.48625 211.084062 34.058464 C 211.654375 34.72474 212.038385 35.488997 212.22849 36.253255 C 212.22849 36.731406 212.707552 37.397682 214.042083 38.542109 C 214.71125 39.212305 215.475469 39.878581 216.33474 40.356732 C 217.095156 40.548776 217.764323 39.690456 217.859375 38.542109 C 217.859375 37.683789 218.148333 36.731406 219.29276 33.674375 C 219.672969 32.721992 219.768021 32.243841 219.577917 31.957734 C 219.007604 30.90737 218.528542 29.857005 218.148333 28.806641 L 217.000104 25.945573 L 217.574219 25.373359 C 217.859375 25.181315 218.049479 24.895208 218.148333 24.609102 C 218.148333 24.225013 217.479167 24.417057 216.905052 24.895208 C 215.950729 25.945573 214.996406 26.23168 213.182812 26.039635 C 212.038385 25.945573 211.369219 25.945573 211.274167 26.133698 C 211.084062 26.517786 209.650677 26.419805 209.365521 26.039635 C 209.175417 25.753529 208.791406 25.659466 208.50625 25.467422 C 208.12224 25.373359 207.837083 25.181315 207.551927 24.989271 C 207.171719 24.703164 205.928438 24.609102 203.350625 24.609102 C 200.582708 24.609102 200.2025 24.609102 200.2025 25.181315 C 200.2025 25.561484 200.012396 25.659466 199.628385 25.561484 C 199.153125 25.561484 198.674062 25.753529 198.293854 26.039635 C 197.434583 26.705911 196.48026 27.184063 195.335833 27.376107 C 194.761719 27.282044 194.187604 27.09 193.712344 26.897956 C 193.043177 26.611849 192.37401 26.419805 191.609792 26.419805 C 191.229583 26.419805 190.849375 26.325742 190.465365 26.133698 C 190.370312 25.945573 189.990104 25.847591 189.511042 25.847591 C 189.035781 25.847591 188.556719 25.659466 188.17651 25.467422 C 187.412292 25.181315 186.553021 24.895208 185.69375 24.797227 C 184.644375 24.609102 183.306042 24.417057 182.735729 24.225013 C 182.066562 24.036888 181.302344 24.036888 180.633177 24.225013 C 179.203594 24.609102 179.01349 24.609102 178.819583 23.938906 C 178.439375 22.700417 177.960312 22.508372 176.051667 22.508372 C 175.287448 22.508372 174.428177 22.41431 173.66776 22.222266 C 173.093646 21.936159 172.424479 21.744115 171.759115 21.650052 C 170.610885 21.363945 170.420781 21.265964 170.420781 20.69375 C 170.420781 20.121536 170.135625 19.929492 168.131927 19.357279 C 165.649167 18.593021 164.50474 18.593021 161.736823 19.45526 C 159.444167 20.121536 157.820677 20.979857 157.155312 22.124284 C 156.391094 23.080586 156.391094 24.51112 157.056458 25.467422 C 157.630573 26.611849 157.535521 27.282044 156.391094 28.332409 C 155.531823 29.284792 154.288542 29.762943 153.049062 29.762943 C 152.284844 29.476836 151.520625 29.092747 150.760208 28.618516 C 148.182396 27.09 145.319427 26.133698 142.262552 25.847591 C 141.213177 25.753529 140.163802 25.561484 139.209479 25.181315 C 138.44526 24.609102 137.871146 23.750781 137.779896 22.794479 C 137.779896 21.838177 136.821771 20.979857 135.48724 20.791732 C 134.723021 20.69375 134.053854 20.407643 133.289635 20.121536 C 132.624271 19.83543 131.860052 19.643385 131.095833 19.45526 C 130.521719 19.357279 129.856354 19.263216 129.28224 18.977109 C 128.518021 18.785065 127.753802 18.785065 127.088437 19.071172 C 125.369896 19.357279 125.274844 19.357279 123.841458 18.691003 C 122.217969 17.926745 121.457552 17.832682 121.073542 18.498958 C 120.693333 19.169154 120.024167 18.691003 120.024167 17.926745 C 120.024167 17.162487 119.259948 16.684336 119.069844 17.256549 C 118.87974 17.832682 118.210573 17.640638 118.305625 17.256549 C 118.400677 17.068424 118.115521 16.87638 117.73151 16.87638 C 116.301927 16.684336 115.252552 15.731953 115.537708 14.967695 C 115.822865 14.587526 116.206875 14.395482 116.587083 14.203438 C 117.161198 13.917331 117.636458 13.631224 118.115521 13.251055 C 119.069844 12.486797 120.404375 10.48013 120.119219 10.386068 C 119.929115 10.099961 119.834062 9.813854 119.735208 9.527747 C 119.640156 8.955534 119.259948 8.571445 118.495729 8.191276 C 117.73151 7.807188 117.446354 7.521081 117.446354 6.948867 C 117.446354 6.470716 117.541406 6.184609 117.73151 6.184609 C 118.305625 6.184609 119.545104 4.754076 119.735208 3.989818 C 119.834062 3.511667 119.834062 3.037435 119.735208 2.939453 C 119.640156 2.845391 119.164896 3.037435 118.590781 3.417604 C 117.25625 4.275924 116.682135 4.467969 116.682135 3.989818 C 116.682135 3.703711 116.492031 3.511667 116.301927 3.417604 C 116.016771 3.323542 116.016771 3.22556 116.206875 3.131497 C 116.777187 2.845391 116.206875 2.273177 115.442656 2.36724 C 115.058646 2.465221 114.77349 2.36724 114.77349 2.175195 C 114.868542 1.889089 114.009271 1.700964 113.15 1.98707 M 7.870312 99.43974 C 7.585156 99.725846 7.201146 99.725846 6.91599 99.43974 C 6.630833 99.05957 6.91599 98.867526 7.39125 98.867526 C 7.870312 98.867526 8.060417 99.153633 7.870312 99.43974 Z M 11.402448 105.741927 C 11.402448 106.028034 11.11349 106.314141 10.733281 106.314141 C 10.543177 106.314141 10.254219 106.122096 10.254219 105.930052 C 10.254219 105.83599 10.254219 105.83599 10.254219 105.741927 C 10.353073 105.45582 10.638229 105.169714 10.923385 105.169714 C 11.212344 105.169714 11.402448 105.357839 11.402448 105.741927 Z M 11.402448 105.741927 " transform="matrix(1.027397,0,0,0.996678,0,0)"/>
</g>
</svg>
