<?xml version="1.0" encoding="UTF-8"?>
<svg xmlns="http://www.w3.org/2000/svg" xmlns:xlink="http://www.w3.org/1999/xlink" width="300px" height="300px" viewBox="0 0 300 300" version="1.1">
<g id="surface1">
<path style="fill:none;stroke-width:2;stroke-linecap:butt;stroke-linejoin:miter;stroke:rgb(100%,100%,100%);stroke-opacity:1;stroke-miterlimit:10;" d="M 109.220833 44.796667 C 111.315417 44.796667 112.933333 43.369245 114.93625 43.557995 C 115.600833 43.557995 116.27 43.27487 116.934583 43.656302 C 117.887917 44.226484 118.64875 43.845052 118.64875 42.700755 C 118.745 41.367708 119.505833 40.321719 120.555417 40.416094 C 121.600417 40.510469 123.314583 40.510469 123.98375 42.224948 C 124.648333 43.939427 127.224167 44.033802 127.315833 46.322396 C 128.269167 45.272474 128.269167 43.750677 127.315833 42.700755 C 125.885833 40.227344 126.555 36.987135 128.842083 35.272656 C 129.790833 34.604167 130.46 33.558177 130.6525 32.41388 C 131.220833 30.986458 132.935 30.223594 134.365 30.892083 C 134.5575 30.986458 134.841667 31.080833 135.034167 31.273516 C 135.50625 31.654948 135.6025 32.41388 135.222083 32.889688 C 133.695833 36.035521 134.177083 39.653229 133.1275 42.987812 C 132.935 43.369245 132.935 43.845052 133.1275 44.320859 C 134.745417 46.322396 133.792083 48.13125 132.83875 49.940104 C 131.79375 52.036016 129.790833 52.417448 127.69625 52.511823 C 127.508333 52.511823 127.315833 52.606198 127.127917 52.704505 C 128.365417 54.226302 130.6525 54.513359 132.174167 53.180312 C 132.270417 53.085937 132.270417 53.085937 132.366667 52.98763 C 134.177083 51.560208 136.175417 50.227161 135.414583 47.27401 C 135.034167 45.940964 135.89125 45.083724 137.412917 44.989349 C 138.650417 44.891042 139.984167 44.702292 139.984167 46.703828 C 139.984167 46.892578 140.080417 46.986953 140.176667 47.179635 C 141.221667 46.035339 141.03375 44.989349 139.60375 44.415234 C 138.842917 44.132109 137.985833 43.939427 137.12875 43.845052 C 134.937917 43.557995 134.26875 42.60638 135.125833 40.510469 C 135.795 39.271797 135.89125 37.75 135.318333 36.416953 C 134.841667 35.178281 135.69875 34.321042 136.652083 33.558177 C 137.605417 32.795312 137.605417 33.750859 137.793333 34.321042 C 138.082083 35.083906 137.697083 36.035521 138.939167 36.416953 C 139.223333 35.461406 138.082083 34.226667 139.79625 33.558177 C 140.84125 32.987995 142.175 33.08237 143.224583 33.845234 C 143.985417 34.604167 144.8425 35.178281 145.892083 35.559714 C 145.98375 34.509792 145.319167 34.226667 144.74625 33.939609 C 143.985417 33.558177 143.320833 32.700937 143.792917 32.032448 C 144.462083 31.080833 142.175 28.890547 145.126667 28.984922 C 146.460417 29.083229 147.794167 27.463125 149.508333 28.890547 C 147.986667 26.224453 149.320417 24.321224 150.654167 22.414062 C 151.034583 21.749505 151.699167 21.269766 152.46 21.081016 C 153.321667 20.986641 154.0825 20.510833 154.559167 19.842344 C 154.939583 19.272161 155.604167 18.985104 156.273333 19.272161 C 159.225 19.936719 160.4625 18.985104 160.55875 16.031953 C 160.655 13.554609 162.080417 12.602995 164.3675 13.652917 C 164.844167 13.841667 165.320833 14.128724 165.224583 14.793281 C 165.128333 15.461771 164.844167 16.031953 165.417083 16.606068 C 165.99 17.17625 165.417083 17.840807 165.89375 18.698047 C 166.93875 16.889193 168.2725 16.031953 170.082917 16.889193 C 172.08125 17.939115 173.51125 19.460911 173.415 21.938255 C 173.415 22.508437 173.70375 23.082552 174.180417 23.365677 C 174.845 23.841484 175.514167 24.415599 176.0825 24.985781 C 176.939583 25.937396 177.705 26.318828 179.03875 25.367214 C 180.464167 24.415599 182.370833 24.698724 183.415833 26.035703 C 183.800833 26.51151 187.417083 26.51151 187.7975 26.130078 C 188.370417 25.461589 187.705833 25.367214 187.320833 25.272839 C 186.65625 24.985781 185.991667 24.698724 186.372083 23.841484 C 186.56 22.984245 187.417083 22.508437 188.274167 22.70112 L 188.370417 22.70112 C 189.32375 22.88987 190.277083 22.88987 191.225833 22.606745 C 193.801667 22.225312 195.039167 24.321224 196.276667 25.937396 C 197.610417 27.651875 199.60875 28.796172 201.799583 29.083229 C 202.18 29.177604 202.46875 29.083229 202.752917 28.890547 C 203.133333 28.509115 202.656667 28.22599 202.3725 27.938932 C 202.088333 27.651875 201.611667 27.176068 201.992083 26.605885 C 202.27625 26.224453 202.752917 26.035703 203.229583 26.130078 C 205.227917 26.605885 206.561667 24.509974 208.468333 25.178464 C 208.372083 24.034167 207.895417 24.321224 207.515 24.222917 C 206.657917 23.939792 206.085 23.463984 206.18125 22.508437 C 206.18125 21.651198 206.942083 20.892266 207.80375 20.892266 C 209.898333 20.605208 212.089167 19.272161 214.0875 21.175391 C 214.37625 21.462448 214.467917 21.081016 214.467917 20.793958 C 214.564167 19.366536 215.801667 19.177786 216.85125 18.890729 C 217.89625 18.603672 219.13375 18.603672 219.32625 20.223776 C 219.4225 20.699583 219.899167 20.510833 220.183333 20.318151 C 221.040417 19.842344 221.8975 19.555286 222.470417 20.605208 C 222.566667 20.793958 222.850833 20.892266 222.947083 20.892266 C 224.849167 19.177786 227.709167 20.605208 229.7075 18.509297 C 231.710417 16.413385 235.235 16.889193 237.5175 18.796354 C 238.663333 19.747969 240.185 19.747969 241.802917 19.555286 C 240.757917 17.746432 241.51875 17.270625 243.232917 16.700443 C 246.280833 15.650521 249.140833 14.223099 252.660833 14.034349 C 251.519583 12.984427 249.709167 14.034349 249.52125 12.602995 C 249.32875 11.175573 251.139167 11.745755 251.9 11.175573 C 255.617083 8.222422 260.282917 8.316797 264.664583 7.553932 C 267.235833 7.270807 269.807083 6.795 272.378333 6.12651 C 275.238333 5.269271 278.09375 5.650703 281.045417 5.650703 C 280.76125 5.556328 280.477083 5.363646 280.188333 5.363646 C 278.570417 4.887839 278.950833 4.124974 279.904167 3.366042 C 280.8575 2.508802 282.095 2.12737 283.3325 2.12737 C 284.85875 2.221745 286.380417 1.934687 287.714167 1.27013 C 288.6675 0.696016 289.240417 1.077448 289.717083 2.032995 C 290.381667 3.267734 290.954583 4.699089 292.856667 4.506406 C 293.525833 4.412031 293.622083 5.174896 293.145417 5.556328 C 292.5725 6.032135 291.811667 6.319193 290.954583 6.413568 C 289.80875 6.413568 288.76375 6.696693 287.810417 7.365182 C 287.43 7.65224 286.953333 7.746615 286.476667 7.553932 C 285.427083 6.98375 284.093333 7.365182 283.525 8.411172 C 283.525 8.509479 283.42875 8.603854 283.42875 8.698229 C 283.048333 9.461094 282.379167 9.461094 281.522083 9.366719 C 280.76125 9.079661 279.807917 9.079661 279.047083 9.461094 C 280.000417 10.125651 281.237917 9.748151 281.907083 10.699766 C 282.855833 11.938437 281.810833 12.50862 280.95375 13.271484 C 283.3325 12.50862 285.523333 14.034349 287.810417 13.271484 C 288.475 13.177109 289.144167 13.271484 289.717083 13.460234 C 290.477917 13.652917 291.43125 13.747292 291.522917 14.698906 C 291.619167 15.650521 290.665833 15.650521 290.0975 15.937578 C 289.144167 16.224635 288.57125 17.17625 288.76375 18.127865 C 288.76375 18.320547 288.86 18.414922 288.951667 18.603672 C 289.524583 19.936719 290.0975 21.269766 290.574167 22.606745 C 291.619167 25.367214 290.954583 26.605885 288.190833 27.081693 C 286.953333 27.270443 286.284167 27.651875 286.284167 28.984922 C 286.284167 29.464661 286.09625 29.940469 285.715833 30.223594 C 284.285833 31.367891 284.47375 32.795312 285.142917 34.128359 C 285.812083 35.461406 286.857083 36.605703 288.6675 36.224271 C 288.86 36.129896 289.047917 36.129896 289.240417 36.224271 C 291.04625 37.368568 292.765 38.512865 295.0475 38.320182 C 295.427917 38.320182 295.716667 38.60724 295.716667 38.988672 C 295.716667 39.177422 295.620417 39.370104 295.524167 39.464479 C 293.90625 41.084583 295.812917 41.367708 296.4775 41.560391 C 298.287917 42.036198 298.287917 42.799062 298.287917 44.607917 C 298.191667 46.703828 298.095417 49.275547 300.002083 50.990026 C 300.28625 51.273151 300.575 51.560208 300.762917 51.941641 C 301.239583 53.085937 302.477083 54.513359 301.52375 55.464974 C 300.575 56.416589 299.24125 55.083542 298.095417 54.513359 C 294.859583 52.606198 291.335 51.465833 287.906667 50.034479 C 286.380417 49.369922 284.7625 48.79974 283.144583 48.13125 C 281.522083 47.46276 280.665 46.703828 280.477083 44.702292 C 280.380833 43.27487 279.807917 42.036198 280.56875 40.604844 C 281.045417 39.653229 280.380833 38.414557 280.096667 37.368568 C 279.71625 36.035521 279.143333 34.796849 278.666667 33.558177 C 278.377917 32.795312 277.713333 32.130755 276.9525 31.749323 C 276.475833 31.462266 275.81125 31.080833 275.238333 31.462266 C 274.665417 31.843698 275.142083 32.512187 275.238333 33.08237 C 275.61875 34.604167 275.045833 35.272656 273.524167 34.891224 C 272.570833 34.796849 271.71375 34.415417 270.952917 33.939609 C 270.567917 33.558177 269.999583 33.463802 269.522917 33.750859 C 269.04625 34.033984 268.85375 34.604167 269.04625 35.178281 C 269.522917 36.89276 270.095833 38.512865 270.664167 40.227344 C 270.856667 40.891901 271.52125 41.273333 272.190417 41.178958 C 272.570833 41.178958 273.0475 40.986276 273.14375 41.560391 C 273.235417 41.941823 273.0475 42.41763 272.667083 42.60638 C 270.952917 43.939427 269.1425 45.083724 267.332083 46.228021 C 266.855417 46.511146 266.2825 46.416771 265.902083 46.035339 C 264.664583 44.891042 263.615 45.846589 262.47375 46.322396 C 262.285833 46.416771 261.997083 46.703828 261.997083 46.892578 C 262.189583 50.227161 259.237917 50.321536 257.235 51.178776 C 255.70875 51.847266 254.379583 52.606198 253.045833 53.65612 C 252.376667 54.131927 252.569167 54.800417 252.757083 55.464974 C 253.33 57.179453 253.23375 59.086615 252.569167 60.801094 C 251.615833 63.372812 251.9 66.038906 251.331667 68.705 C 251.139167 69.275182 251.423333 69.849297 251.9 70.038047 C 252.18875 70.132422 252.472917 70.132422 252.757083 69.943672 C 254.947917 68.992057 256.09375 70.038047 257.13875 72.133958 C 257.615417 70.419479 258.37625 70.132422 259.237917 71.563776 C 259.71 71.182344 259.99875 70.513854 259.9025 69.849297 C 259.329583 67.466328 261.04375 67.65901 262.3775 67.753385 C 263.8075 68.03651 265.2375 68.134818 266.662917 68.134818 C 267.996667 68.03651 268.189167 69.656615 269.426667 69.943672 C 269.04625 68.610625 269.330417 67.179271 268.285417 66.038906 C 268.092917 65.751849 267.80875 65.464792 268.189167 65.181667 C 268.473333 64.894609 268.85375 64.894609 269.1425 65.087292 C 269.807083 65.370417 270.38 65.751849 270.952917 66.227656 C 274.0925 70.132422 278.570417 71.752526 282.855833 73.754062 C 283.525 74.037188 284.189583 74.41862 284.7625 74.800052 C 285.335417 75.181484 285.523333 75.562917 284.7625 75.944349 C 283.23625 76.707214 283.525 78.04026 284.001667 79.180625 C 284.66625 80.706354 285.90375 81.850651 287.43 82.515208 C 288.76375 83.183698 289.332083 85.181302 288.37875 86.231224 C 287.714167 86.895781 287.2375 86.325599 286.857083 85.755417 C 284.382083 81.850651 280.76125 78.991875 277.617083 75.751667 C 276.283333 74.22987 274.38125 73.179948 272.378333 72.896823 C 271.997917 72.896823 271.6175 72.421016 271.333333 72.896823 C 271.140833 73.278255 271.237083 73.754062 271.52125 74.037188 C 272.094167 74.800052 272.667083 75.468542 273.331667 76.133099 C 275.999167 78.610443 277.809583 81.469219 277.905833 85.279609 C 277.9975 87.182839 279.143333 88.991693 279.143333 90.993229 C 279.239583 94.99237 279.143333 99.089818 277.713333 102.900208 C 276.9525 104.992188 275.902917 107.186406 272.855 106.612292 C 271.81 106.423542 270.856667 107.186406 270.664167 108.232396 C 270.664167 108.326771 270.664167 108.421146 270.664167 108.421146 C 270.856667 110.615365 269.23875 112.805651 270.760417 114.995937 C 271.237083 115.660495 271.140833 116.616042 270.47625 117.186224 C 269.522917 118.137839 269.330417 119.470885 268.762083 120.615182 C 268.189167 121.759479 268.762083 122.616719 269.999583 122.899844 C 271.71375 123.473958 273.331667 124.331198 274.857917 125.282812 C 277.520833 126.710234 278.28625 129.663385 279.807917 131.853672 C 280.188333 132.329479 280.188333 133.092344 279.71625 133.473776 C 277.809583 134.618073 276.572083 136.426927 274.857917 137.665599 C 273.615833 138.522839 272.855 138.330156 272.570833 136.710052 C 272.190417 134.901198 272.378333 132.903594 270.28375 131.853672 C 269.807083 131.570547 270.095833 130.996432 270.1875 130.42625 C 270.664167 128.900521 269.999583 128.330339 268.473333 128.519089 C 267.905 128.519089 267.332083 128.711771 266.855417 128.998828 C 265.902083 129.56901 265.2375 129.093203 264.568333 128.519089 C 263.90375 127.948906 264.187917 127.284349 264.472083 126.615859 C 265.14125 125.188437 264.472083 124.807005 263.142917 124.614323 C 259.425833 124.044141 257.13875 125.75862 255.617083 128.998828 C 255.328333 129.663385 254.85625 130.331875 253.999167 130.139193 C 253.142083 129.950443 253.23375 129.093203 253.142083 128.424714 C 253.045833 127.284349 253.045833 126.234427 253.33 125.09013 C 253.5225 124.331198 253.42625 123.568333 252.472917 123.473958 C 251.712083 123.375651 250.855 123.281276 250.56625 124.331198 C 249.901667 126.902917 247.426667 128.519089 247.04625 131.189115 C 246.95 131.853672 246.189167 132.046354 245.52 132.235104 C 244.850833 132.427786 244.37875 132.427786 244.470417 133.186719 C 244.470417 133.855208 244.947083 134.519766 245.61625 134.618073 C 247.518333 134.806823 249.140833 135.09388 250.378333 136.710052 C 250.95125 137.472917 251.615833 136.710052 252.0925 136.13987 C 253.710417 133.949583 256.570417 132.903594 259.329583 133.662526 C 259.99875 133.855208 260.475417 134.425391 260.475417 135.09388 C 260.567083 135.856745 259.99875 135.856745 259.425833 135.758437 C 259.141667 135.758437 258.852917 135.856745 258.76125 135.95112 C 257.4275 138.235781 255.424583 140.142943 254.947917 142.809036 C 254.66375 143.855026 255.328333 144.904948 256.377917 145.188073 L 256.474167 145.188073 C 258.188333 145.66388 259.618333 146.808177 260.663333 148.235599 C 261.520417 149.191146 262.57 150.048385 263.8075 150.524193 C 265.617917 151.381432 265.617917 151.570182 264 152.714479 C 264.187917 153.284661 264.664583 153.095911 264.94875 153.095911 C 267.428333 153.666094 267.61625 154.047526 265.998333 155.950755 C 265.617917 156.426562 264.94875 157.000677 265.2375 157.665234 C 265.617917 158.522474 266.190833 157.665234 266.759167 157.665234 C 267.996667 157.570859 269.1425 158.428099 269.23875 159.666771 C 269.426667 161.1925 269.710833 162.808672 268.285417 164.047344 C 267.80875 164.523151 267.61625 165.191641 267.7125 165.856198 C 267.7125 167.193177 267.428333 168.431849 266.855417 169.666589 C 266.190833 170.90526 265.902083 172.43099 266.094583 173.858411 C 266.190833 175.002708 265.805833 176.048698 265.14125 177.000312 C 263.615 179.288906 262.66625 181.955 260.567083 183.858229 C 260.379167 184.050911 260.095 184.239661 260.095 184.432344 C 259.80625 187.287187 257.519167 187.766927 255.424583 188.718542 C 250.6625 191.003203 246.569583 194.432161 242.187917 197.479687 C 241.615 197.86112 241.330833 198.623984 241.71125 199.194167 C 241.802917 199.288542 241.802917 199.386849 241.899167 199.481224 C 242.375833 200.244089 242.94875 201.006953 243.709583 201.577135 C 244.470417 202.052943 244.566667 202.623125 243.99375 203.291615 C 243.709583 203.57474 243.521667 203.956172 243.521667 204.337604 C 243.805833 206.339141 242.472083 207.19638 241.138333 208.147995 C 240.185 208.910859 239.327917 209.099609 238.374583 208.340677 C 237.425833 207.766562 236.949167 206.527891 237.329583 205.481901 C 237.80625 204.054479 238.567083 202.7175 240.28125 202.336068 C 240.757917 202.241693 241.234583 201.958568 242.279583 201.577135 C 240.28125 201.290078 239.520417 200.338464 239.231667 198.812734 C 238.9475 197.86112 238.090417 197.290937 237.137083 197.479687 C 235.899583 197.574062 234.377917 197.479687 233.6125 198.718359 C 232.27875 201.006953 230.757083 203.098932 229.519583 205.387526 C 228.37375 207.479505 228.6625 208.529427 230.087917 210.432656 C 231.802083 212.72125 233.992917 214.054297 236.4725 215.387344 C 239.612083 217.007448 240.565417 220.149349 241.51875 223.29125 C 242.279583 225.387161 242.568333 227.577448 242.472083 229.771667 C 242.187917 232.62651 239.612083 236.342526 236.852917 237.294141 C 235.615417 237.675573 234.758333 238.245755 234.662083 239.673177 C 234.565833 240.247292 234.281667 240.817474 233.70875 241.104531 C 232.375 242.056146 231.23375 243.200443 230.280417 244.53349 C 229.99625 245.103672 229.230833 245.390729 228.56625 245.198047 C 227.897083 244.914922 228.282083 244.34474 228.185833 243.770625 C 228.185833 243.102135 228.185833 242.437578 228.089583 241.867396 C 228.089583 240.915781 227.612917 240.628724 226.659583 240.341667 C 225.70625 240.054609 223.3275 241.293281 223.895833 238.532812 C 221.040417 237.105391 219.706667 232.913568 215.42125 233.959557 C 214.37625 234.246615 213.803333 233.578125 213.803333 232.532135 C 213.707083 231.674896 213.514583 231.104714 212.565833 231.199089 C 211.42 231.293464 211.70875 232.056328 211.800417 232.81526 C 211.992917 235.485286 211.51625 238.15138 210.47125 240.628724 C 209.517917 243.00776 209.421667 245.296354 211.896667 247.010833 C 212.75375 247.581016 212.94625 248.725312 213.326667 249.771302 C 213.895 251.580156 215.22875 253.01151 216.942917 253.676068 C 219.23 254.72599 221.80125 255.677604 223.3275 257.962266 C 224.565 259.676745 225.137917 261.678281 224.849167 263.774193 C 224.66125 265.10724 224.7575 266.251536 225.89875 267.108776 C 227.04 267.962083 227.2325 269.200755 227.516667 270.345052 C 227.805417 271.013542 227.425 271.870781 226.755833 272.153906 C 226.09125 272.535339 225.422083 272.724089 224.7575 272.059531 C 223.611667 271.013542 222.18625 270.250677 220.66 269.77487 C 215.994167 268.154766 214.756667 264.155625 213.99125 260.058177 C 213.803333 258.819505 213.707083 257.392083 212.85 256.629219 C 210.659167 254.72599 209.802083 251.580156 206.754167 250.534167 C 205.993333 250.247109 205.993333 249.582552 206.085 248.914062 C 206.657917 246.342344 206.657917 243.67625 207.134583 241.010156 C 207.7075 238.15138 207.134583 235.198229 205.612917 232.720885 C 203.990417 230.247474 202.752917 227.577448 201.895833 224.816979 C 201.515417 223.578307 200.181667 223.1025 199.989167 221.769453 C 199.8975 221.293646 199.228333 221.671146 198.944167 221.958203 C 198.37125 222.532318 197.894583 223.1025 197.417917 223.672682 C 196.469167 225.100104 194.65875 225.768594 193.03625 225.387161 C 191.134167 225.100104 190.36875 224.529922 191.134167 222.815443 C 192.0875 220.338099 191.037917 218.62362 189.704167 217.007448 C 189.13125 216.433333 188.750833 215.768776 188.562917 215.005911 C 188.466667 214.243047 187.99 213.672865 187.417083 213.291432 C 183.8925 211.958385 182.8475 208.816484 181.61 205.670651 C 181.4175 204.911719 180.844583 204.243229 180.08375 204.054479 C 179.322917 203.861797 178.465833 203.57474 178.465833 204.911719 C 178.465833 205.670651 178.273333 206.244766 177.32 205.768958 C 177.132083 205.670651 177.035833 205.576276 176.847917 205.768958 C 175.417917 207.003698 173.8 208.05362 171.989583 208.623802 C 171.700833 208.623802 171.1325 208.718177 171.03625 208.623802 C 169.79875 206.622266 168.941667 208.529427 167.892083 208.816484 C 166.177917 209.386667 165.99 210.432656 166.274167 212.05276 C 166.370417 213.102682 165.7975 214.148672 164.747917 214.530104 C 162.272917 215.674401 160.178333 217.483255 158.555833 219.767917 C 157.89125 220.719531 156.937917 221.482396 155.796667 221.958203 C 153.98625 222.91375 152.175833 223.865365 151.795417 226.244401 C 151.795417 226.437083 151.699167 226.720208 151.51125 226.720208 C 149.320417 227.294323 148.174583 229.578984 146.08 230.149167 C 144.558333 230.530599 143.985417 231.293464 144.365833 232.81526 C 144.74625 234.34099 144.93875 236.149844 145.222917 237.864323 C 145.415417 239.484427 144.93875 241.198906 143.889167 242.437578 C 143.224583 243.200443 143.032083 244.340807 143.4125 245.296354 C 143.985417 246.818151 144.081667 248.249505 142.07875 248.914062 C 141.987083 248.914062 141.794583 249.008437 141.794583 249.106745 C 141.221667 251.867214 138.36625 252.818828 137.12875 255.009115 C 136.175417 256.821901 134.5575 256.916276 133.22375 255.201797 C 131.98625 253.676068 131.032917 251.961589 130.46 250.058359 C 129.699167 247.486641 128.649583 245.009297 127.127917 242.81901 C 126.174583 241.580339 125.697917 240.054609 125.505417 238.438437 C 125.41375 235.292604 123.79125 232.81526 122.365833 230.247474 C 121.31625 228.434687 120.555417 226.437083 120.362917 224.435547 C 119.9825 220.338099 118.5525 216.244583 119.698333 212.05276 C 119.88625 211.388203 119.698333 210.719714 119.221667 210.243906 C 118.5525 209.768099 118.172083 210.338281 117.695417 210.625339 C 113.50625 212.815625 112.365 212.05276 110.362083 209.292292 C 110.265833 209.197917 110.174167 209.099609 110.077917 209.005234 C 109.505 208.05362 107.790833 207.479505 108.17125 206.244766 C 108.551667 205.006094 110.174167 205.957708 111.315417 204.813411 C 107.887083 204.435911 106.74125 201.006953 103.982083 199.669974 C 102.744583 199.099792 102.075417 197.290937 101.410833 195.957891 C 101.122083 195.195026 100.36125 194.624844 99.504167 194.526536 C 94.645833 194.145104 89.7875 193.287865 84.929167 193.386172 C 82.834583 193.386172 81.024167 192.33625 79.218333 191.766068 C 77.407917 191.195885 75.785417 190.240339 73.979583 189.764531 C 72.645833 189.575781 71.6925 188.337109 71.78875 187.004062 C 71.59625 183.763854 70.931667 183.288047 67.7875 184.050911 C 63.405833 185.096901 61.787917 184.432344 59.308333 180.621953 C 58.927917 179.953464 58.45125 179.288906 57.690417 178.907474 C 54.54625 177.574427 54.069583 174.715651 53.785417 171.860807 C 53.689167 170.71651 51.594583 167.668984 50.64125 167.763359 C 49.3075 167.763359 48.07 168.333542 47.212917 169.285156 C 46.452083 170.142396 46.163333 171.097943 47.020417 172.143932 C 47.405417 172.714115 47.593333 173.382604 47.405417 173.952786 C 47.309167 174.810026 47.497083 175.667266 48.07 176.335755 C 49.784167 178.620417 51.117917 181.003385 50.83375 184.050911 C 50.83375 184.526719 50.93 185.096901 51.117917 185.572708 C 51.402083 186.909687 51.87875 187.385495 52.928333 185.954141 C 53.30875 185.383958 53.785417 184.908151 54.54625 185.289583 C 55.307083 185.671016 55.022917 186.43388 54.835 187.004062 C 54.6425 187.574245 54.358333 188.050052 54.069583 188.620234 C 53.785417 189.194349 53.30875 189.957214 53.977917 190.621771 C 54.45 191.29026 55.307083 191.47901 56.0725 191.195885 C 57.1175 190.621771 57.882917 191.097578 58.74 191.671693 C 59.68875 192.430625 61.215 192.33625 61.975833 191.384635 C 63.97875 189.764531 66.169583 188.242734 68.360417 187.004062 C 68.92875 186.62263 69.309167 186.81138 69.405417 187.574245 C 69.405417 187.861302 69.405417 188.050052 69.405417 188.337109 C 68.264167 192.717682 71.119583 194.907969 74.26375 196.716823 C 75.881667 197.766745 77.119167 199.099792 77.97625 200.814271 C 78.36125 201.48276 78.265 202.434375 77.788333 203.004557 C 76.550833 204.911719 74.740417 206.433516 72.7375 207.479505 C 71.408333 207.959245 70.642917 209.197917 70.642917 210.625339 C 70.642917 211.86401 70.2625 212.626875 68.8325 212.528568 C 68.452083 212.528568 67.975417 212.528568 67.7875 212.91 C 66.55 215.768776 63.121667 215.198594 61.11875 216.909141 C 60.834583 217.101823 60.545833 217.196198 60.165417 217.196198 C 58.070833 216.150208 55.97625 217.76638 53.881667 217.290573 C 52.832083 217.101823 51.690833 217.76638 51.498333 218.816302 C 51.310417 219.767917 50.453333 220.338099 49.5 220.338099 C 47.309167 220.436406 45.118333 221.482396 42.735 220.817839 C 42.070417 220.719531 41.40125 220.912214 40.832917 221.195339 C 37.404583 223.196875 33.59125 222.91375 29.7825 222.815443 C 29.021667 222.815443 28.260833 222.91375 27.495417 223.196875 C 26.450417 223.672682 25.212917 223.767057 24.067083 223.483932 C 20.922917 222.815443 20.162083 221.958203 19.877917 218.816302 C 19.589167 215.957526 19.20875 213.102682 20.065833 210.149531 C 20.5425 208.147995 19.974167 206.146458 18.544167 204.719036 C 17.590833 203.57474 17.114167 202.052943 17.210417 200.527214 C 17.398333 197.86112 16.257083 195.195026 14.1625 193.386172 C 11.971667 191.573385 11.875417 189.194349 12.448333 186.62263 C 13.209167 183.288047 13.02125 180.051771 10.2575 177.47612 C 9.588333 176.811562 9.304167 175.859948 9.400417 175.002708 C 9.588333 171.381068 8.066667 167.952109 7.970417 164.334401 C 7.970417 163.858594 7.874167 163.382786 7.49375 163.095729 C 5.01875 161.38125 6.636667 159.761146 7.68625 158.239349 C 8.447083 157.287734 8.92375 156.04513 8.8275 154.810391 C 8.543333 151.951615 10.16125 150.048385 11.971667 148.235599 C 13.493333 146.426745 15.30375 144.806641 17.306667 143.379219 C 19.4975 141.951797 19.4975 139.474453 20.735 137.472917 C 21.115417 136.902734 22.352917 136.234245 21.688333 135.664062 C 20.735 134.712448 19.4975 134.331016 18.16375 134.519766 C 17.783333 134.618073 17.398333 134.806823 17.017917 134.901198 C 14.1625 135.758437 12.7325 135.09388 11.210833 132.522161 C 10.445417 131.189115 9.684583 129.474635 7.49375 131.090807 C 6.44875 131.853672 5.206667 131.189115 4.445833 130.139193 C 3.969167 129.376328 3.400833 128.519089 2.827917 127.854531 C 1.21 126.045677 0.352917 124.331198 1.590417 121.759479 C 2.4475 120.045 2.54375 118.137839 2.067083 116.328984 C 1.778333 115.56612 2.255 115.37737 2.731667 115.184687 C 4.349583 114.425755 5.875833 113.662891 7.49375 115.37737 C 8.73125 116.710417 10.541667 116.328984 11.875417 115.660495 C 13.589583 114.901562 14.923333 115.37737 16.257083 116.140234 C 17.017917 116.616042 17.97125 116.804792 18.828333 116.616042 C 23.494167 115.947552 27.687917 116.710417 30.735833 120.615182 C 32.926667 123.281276 36.070833 124.236823 39.11875 125.282812 C 39.402917 125.377187 39.783333 125.377187 40.0675 125.282812 C 42.643333 124.138516 44.641667 125.664245 46.64 126.615859 C 47.785833 127.091667 48.450417 128.235964 48.16625 129.474635 C 47.405417 132.710911 49.59625 134.806823 51.117917 137.189792 C 51.87875 138.330156 53.2125 137.854349 54.358333 137.378542 C 56.929583 136.332552 57.21375 136.521302 57.025833 139.380078 C 56.929583 141.47599 58.167083 142.903411 59.597083 144.236458 C 60.930833 145.380755 62.072083 146.52112 63.213333 147.854167 C 64.166667 148.998464 65.596667 149.474271 67.118333 149.285521 C 67.7875 149.191146 68.548333 149.092839 69.2175 149.092839 C 70.2625 149.191146 70.739167 148.711406 70.642917 147.759792 C 70.642917 146.52112 70.931667 145.282448 71.408333 144.142083 C 72.169167 141.951797 72.265417 139.855885 70.931667 137.854349 C 70.455 137.091484 70.642917 136.13987 71.312083 135.475313 C 72.072917 134.618073 72.265417 135.856745 72.7375 136.045495 C 73.502917 136.426927 74.45625 136.997109 75.313333 136.426927 C 76.170417 135.856745 75.120833 134.999505 75.217083 134.425391 C 75.50125 131.570547 72.645833 130.996432 71.408333 129.187578 C 70.16625 127.378724 69.882083 125.377187 69.501667 123.375651 C 69.501667 123.092526 69.501667 122.899844 69.689583 122.616719 C 71.215833 121.566797 72.93 120.807865 74.740417 120.328125 C 76.93125 120.709557 77.311667 120.520807 78.0725 117.949089 C 78.549167 116.423359 77.119167 116.234609 76.358333 115.56612 C 74.07125 113.851641 71.5 115.37737 69.12125 114.803255 C 67.214583 117.091849 63.97875 116.423359 61.879583 118.232214 C 61.11875 118.711953 60.738333 119.56526 60.930833 120.426432 C 61.595417 123.375651 61.0225 126.423177 61.402917 129.376328 C 61.595417 130.331875 61.0225 131.28349 60.07375 131.47224 C 59.9775 131.47224 59.785 131.47224 59.68875 131.47224 C 57.882917 131.664922 54.835 129.474635 54.6425 127.567474 C 54.45 126.045677 53.785417 125.282812 52.259167 125.471562 C 50.7375 125.664245 49.880417 124.614323 49.3075 123.281276 C 48.739167 121.853854 47.593333 120.90224 46.071667 120.520807 C 43.9725 119.852318 41.974167 118.806328 41.117083 116.234609 C 40.640417 114.52013 39.0225 113.281458 38.261667 111.661354 C 37.5925 110.233932 37.972917 109.565443 39.402917 109.376693 C 40.0675 109.18401 40.832917 108.99526 41.4975 108.900885 C 42.547083 108.802578 42.9275 108.421146 42.643333 107.375156 C 42.450833 106.612292 42.735 105.947734 43.500417 106.042109 C 44.449167 106.136484 45.4025 105.566302 45.879167 104.709062 C 46.452083 103.946198 47.309167 103.564766 48.2625 103.470391 C 49.40375 103.281641 50.453333 102.518776 50.93 101.468854 C 51.87875 99.66 52.451667 98.326953 50.357083 96.518099 C 47.97375 94.516562 47.497083 91.181979 47.405417 88.134453 C 47.309167 86.136849 46.8325 85.373984 44.834167 85.562734 C 43.880833 85.661042 42.9275 85.755417 42.450833 84.705495 C 41.974167 83.56513 42.9275 83.183698 43.688333 82.609583 C 45.782917 81.087786 45.69125 75.849974 43.592083 74.41862 C 41.877917 73.179948 41.974167 72.991198 43.307917 71.371094 C 44.925833 69.180807 46.355833 66.896146 47.593333 64.418802 C 48.450417 62.704323 51.498333 60.226979 53.50125 60.321354 C 54.358333 60.321354 54.6425 59.943854 55.022917 59.36974 C 55.88 57.942318 57.40625 57.085078 59.120417 56.990703 C 60.261667 56.892396 61.402917 56.609271 62.54875 56.322214 C 64.262917 55.752031 66.073333 55.276224 65.500417 52.79888 C 65.404167 52.417448 65.596667 52.036016 65.784583 51.654583 C 67.595 49.940104 68.644583 47.655443 70.2625 45.940964 C 71.59625 44.513542 72.549583 42.893437 73.690833 41.462083 C 76.074167 38.512865 78.36125 35.367031 82.550417 34.796849 C 83.691667 34.702474 85.314167 33.652552 85.121667 36.129896 C 85.121667 36.605703 85.598333 36.798385 85.97875 36.89276 C 87.789167 37.462943 88.265833 39.083047 88.7425 40.604844 C 88.930417 41.462083 89.219167 42.41763 89.599583 43.176562 C 90.740833 44.989349 89.98 46.035339 88.55 47.08526 C 85.598333 49.082865 83.4075 48.701432 81.120417 46.129714 C 80.9325 45.846589 80.552083 45.559531 80.263333 45.370781 C 79.59875 45.083724 79.025833 44.320859 78.36125 44.702292 C 77.692083 45.083724 78.0725 45.940964 78.265 46.605521 C 78.549167 47.46276 78.16875 48.512682 77.407917 48.98849 C 76.550833 49.845729 76.074167 50.990026 76.170417 52.130391 C 75.977917 52.79888 76.454583 53.561745 77.215417 53.65612 C 77.407917 53.65612 77.595833 53.65612 77.788333 53.65612 C 78.929583 53.561745 78.16875 52.704505 78.265 52.130391 C 78.36125 51.465833 77.504167 50.415911 79.025833 50.132786 C 80.552083 49.845729 80.74 50.415911 80.83625 51.654583 C 80.9325 52.893255 82.17 52.79888 82.930833 52.79888 C 83.691667 52.79888 84.072083 52.323073 83.980417 51.560208 C 83.884167 50.797344 84.360833 50.227161 85.217917 49.845729 C 86.647917 49.369922 88.169583 48.894115 89.695833 48.607057 C 90.456667 48.32 91.31375 48.79974 91.694167 49.558672 C 92.455 50.891719 92.931667 50.321536 93.408333 49.464297 C 93.504583 49.369922 93.600833 49.275547 93.600833 49.17724 C 93.215833 46.605521 95.315 45.272474 96.36 43.369245 C 96.740417 42.799062 96.932917 42.130573 97.79 42.41763 C 98.647083 42.700755 99.504167 42.893437 99.504167 43.939427 C 99.696667 44.702292 99.22 45.370781 98.454583 45.653906 C 98.170417 45.748281 97.79 45.846589 97.505833 45.940964 C 97.029167 46.129714 96.740417 46.511146 96.836667 46.986953 C 97.029167 47.655443 97.505833 47.749818 98.074167 47.655443 C 98.362917 47.655443 98.550833 47.561068 98.839583 47.46276 C 101.410833 45.178099 104.935417 45.559531 107.790833 44.033802 C 108.36375 43.750677 109.028333 43.27487 109.60125 43.845052 C 110.174167 44.415234 109.40875 43.845052 109.220833 44.796667 Z M 109.220833 44.796667 " transform="matrix(0.852273,0,0,0.993377,0,0)"/>
<path style="fill:none;stroke-width:2;stroke-linecap:butt;stroke-linejoin:miter;stroke:rgb(100%,100%,100%);stroke-opacity:1;stroke-miterlimit:10;" d="M 268.665833 281.202109 C 267.7125 280.061745 267.139583 280.34487 266.37875 281.107734 C 265.714167 281.681849 264.94875 282.252031 264.187917 282.727839 C 263.615 283.109271 263.234583 283.203646 262.757917 282.440781 C 261.712917 280.824609 259.141667 280.443177 257.4275 281.489167 C 256.09375 282.252031 254.66375 283.585078 253.23375 281.489167 C 252.949583 281.107734 252.472917 281.394792 252.18875 281.489167 C 250.185833 281.964974 248.28375 280.726302 247.807083 278.728698 C 247.710833 278.536016 247.710833 278.347266 247.710833 278.060208 C 247.710833 277.490026 247.995 276.632786 247.330417 276.440104 C 244.947083 275.582865 244.947083 273.105521 243.805833 271.489349 C 242.279583 269.299062 244.2825 267.584583 245.139583 265.771797 C 245.707917 264.533125 246.85375 264.820182 247.995 265.012865 C 250.855 265.390365 251.80375 264.533125 252.472917 261.296849 C 252.660833 260.152552 252.949583 259.487995 254.187083 259.295312 C 255.140417 259.106562 255.90125 258.532448 256.281667 257.675208 C 257.33125 255.583229 259.237917 254.151875 260.186667 252.059896 C 260.567083 251.104349 261.520417 251.198724 262.189583 250.628542 C 265.045 248.438255 267.332083 245.579479 268.665833 242.150521 C 269.330417 240.628724 270.38 240.247292 271.90625 241.104531 C 273.712083 242.150521 275.142083 243.581875 277.332917 244.057682 C 278.570417 244.340807 278.474167 245.390729 277.236667 246.153594 C 276.572083 246.531094 275.5225 246.629401 276.283333 247.868073 C 276.572083 248.34388 275.999167 249.106745 275.61875 249.106745 C 274.0925 249.20112 273.808333 250.341484 273.0475 251.297031 C 271.90625 252.630078 272.378333 253.01151 273.427917 253.770443 C 274.472917 254.533307 275.61875 255.201797 275.334583 256.916276 C 275.238333 257.962266 276.379583 258.249323 277.04875 258.819505 C 277.520833 259.295312 278.28625 259.58237 278.09375 260.345234 C 277.905833 261.104167 277.140417 260.915417 276.572083 261.009792 C 274.954167 261.104167 273.712083 262.342839 273.712083 263.962943 C 273.524167 267.010469 272.190417 269.96362 269.999583 272.153906 C 269.619167 272.535339 269.330417 273.011146 269.710833 273.486953 C 270.664167 274.536875 270.28375 275.48849 269.522917 276.345729 C 268.092917 277.871458 268.092917 279.393255 268.665833 281.202109 Z M 268.665833 281.202109 " transform="matrix(0.852273,0,0,0.993377,0,0)"/>
<path style="fill:none;stroke-width:2;stroke-linecap:butt;stroke-linejoin:miter;stroke:rgb(100%,100%,100%);stroke-opacity:1;stroke-miterlimit:10;" d="M 230.280417 295.397682 C 228.089583 296.254922 226.563333 294.53651 224.7575 293.301771 C 223.3275 292.251849 221.8975 291.300234 220.375833 290.34862 C 217.89625 288.634141 215.801667 286.821354 215.040833 283.679453 C 214.564167 281.681849 213.037917 280.061745 211.42 278.630391 C 210.47125 277.965833 209.705833 276.915911 209.325417 275.775547 C 209.229167 275.29974 209.04125 274.918307 208.660833 274.63125 C 205.04 271.870781 203.325833 267.010469 198.66 265.390365 C 197.798333 265.012865 197.23 264.25 196.94125 263.39276 C 196.560833 262.724271 196.276667 261.867031 196.849583 261.202474 C 197.417917 260.533984 198.275 260.915417 198.944167 261.202474 C 199.80125 261.485599 200.754583 261.583906 201.611667 261.391224 C 204.370833 261.009792 205.800833 261.867031 206.942083 264.25 C 207.230833 264.914557 207.80375 265.390365 208.564583 265.488672 C 209.99 265.677422 211.32375 266.251536 212.373333 267.297526 C 215.040833 270.345052 219.13375 271.202292 221.99375 273.966693 C 222.566667 274.536875 223.42375 274.4425 224.280833 274.4425 C 225.8025 274.4425 226.659583 275.107057 226.279167 276.727161 C 225.995 277.871458 226.182917 278.823073 227.516667 279.106198 C 228.37375 279.29888 228.6625 279.963437 228.754167 280.631927 C 228.946667 281.394792 229.230833 282.157656 229.80375 282.727839 C 230.087917 283.203646 230.660833 283.392396 231.1375 283.298021 C 231.710417 283.203646 231.802083 282.727839 231.802083 282.252031 C 231.710417 281.394792 232.375 280.537552 233.232083 280.537552 C 234.281667 280.443177 234.281667 281.300417 234.565833 281.964974 C 234.758333 282.440781 235.13875 282.822214 235.422917 283.203646 C 236.37625 284.249635 236.18375 285.0125 234.662083 285.110807 C 233.90125 285.110807 233.805 285.299557 233.70875 286.062422 C 233.232083 288.441458 233.044167 290.918802 233.044167 293.396146 C 232.947917 295.397682 232.755417 295.586432 230.280417 295.397682 Z M 230.280417 295.397682 " transform="matrix(0.852273,0,0,0.993377,0,0)"/>
<path style="fill:none;stroke-width:2;stroke-linecap:butt;stroke-linejoin:miter;stroke:rgb(100%,100%,100%);stroke-opacity:1;stroke-miterlimit:10;" d="M 324.577917 248.056823 C 327.81375 247.962448 328.194167 248.438255 328.097917 251.391406 C 328.00625 251.961589 328.00625 252.535703 328.097917 253.105885 C 328.386667 254.627682 329.624167 255.201797 330.861667 255.583229 C 332.099167 255.964661 332.387917 254.722057 332.86 253.86875 C 333.529167 252.154271 334.670417 250.628542 336.196667 249.676927 C 336.86125 249.295495 336.9575 248.725312 337.15 248.056823 C 337.910833 245.485104 339.052083 244.914922 341.623333 245.579479 C 343.814167 246.153594 346.10125 245.677786 347.911667 244.246432 C 349.341667 243.102135 350.295 243.483568 350.295 245.009297 C 350.386667 248.630937 350.767083 252.343021 350.295 255.866354 C 349.818333 259.39362 350.295 263.105703 350.1025 266.727344 C 350.1025 267.203151 350.1025 267.773333 350.00625 268.249141 C 349.818333 269.582187 349.052917 270.057995 347.815417 269.29513 C 345.436667 267.867708 344.387083 267.962083 342.19625 269.676562 C 341.912083 269.96362 341.623333 270.156302 341.242917 270.345052 C 340.76625 270.726484 340.197917 270.632109 339.812917 270.250677 C 339.4325 269.869245 339.4325 269.29513 339.812917 268.91763 C 339.812917 268.91763 339.812917 268.91763 339.909167 268.91763 C 340.674583 268.154766 340.76625 266.727344 342.2925 267.010469 C 343.053333 267.108776 342.957083 266.534661 342.860833 266.058854 C 342.769167 262.059714 338.955833 259.106562 334.862917 259.676745 C 332.387917 260.152552 329.720417 259.963802 327.337083 259.295312 C 326.195833 258.91388 325.435 259.295312 325.33875 260.628359 C 325.33875 261.296849 325.05 261.867031 324.385417 261.867031 C 323.720833 261.867031 323.432083 261.296849 323.335833 260.628359 C 323.335833 260.152552 323.147917 259.676745 322.859167 259.39362 C 321.053333 257.962266 321.53 257.010651 323.335833 256.247786 C 323.624583 256.153411 323.8125 255.964661 324.005 255.771979 C 324.577917 255.201797 326.003333 254.91474 325.435 254.0575 C 324.862083 253.20026 324.192917 254.438932 323.528333 254.820365 C 322.575 255.296172 321.717917 255.484922 320.860833 254.722057 C 320.576667 254.438932 320.19625 254.344557 319.81125 254.24625 C 319.242917 254.151875 318.385833 254.533307 318.385833 253.487318 C 318.193333 252.630078 318.482083 251.772839 319.242917 251.198724 C 320.287917 250.628542 321.053333 249.771302 321.717917 248.725312 C 322.387083 247.769766 323.720833 248.249505 324.577917 248.056823 Z M 324.577917 248.056823 " transform="matrix(0.852273,0,0,0.993377,0,0)"/>
<path style="fill:none;stroke-width:2;stroke-linecap:butt;stroke-linejoin:miter;stroke:rgb(100%,100%,100%);stroke-opacity:1;stroke-miterlimit:10;" d="M 300.762917 124.425573 C 301.71625 125.664245 301.047083 129.093203 299.809583 129.663385 C 298.572083 130.233568 297.61875 130.044818 297.430833 128.711771 C 297.238333 127.378724 296.57375 127.186042 295.33625 128.235964 C 296.38125 128.519089 297.050417 129.376328 297.142083 130.42625 C 297.142083 131.570547 296.285 132.140729 295.427917 132.616536 C 294.763333 132.997969 294.382917 133.662526 294.479167 134.425391 C 294.479167 134.999505 294.382917 135.664062 293.622083 135.856745 C 292.856667 136.045495 292.38 135.28263 291.811667 134.806823 C 291.23875 134.331016 290.954583 133.949583 291.43125 133.281094 C 291.811667 132.903594 292.095833 132.329479 292.095833 131.759297 C 291.43125 131.664922 290.858333 132.046354 290.574167 132.616536 C 290.189167 133.281094 289.524583 133.760833 288.76375 133.949583 C 287.906667 134.236641 286.953333 134.806823 286.284167 133.760833 C 285.619583 132.710911 286.857083 132.522161 287.2375 131.853672 C 287.43 131.570547 287.714167 131.377865 287.810417 130.996432 C 288.6675 127.567474 291.715417 126.140052 293.90625 123.855391 C 294.0025 123.757083 294.190417 123.568333 294.382917 123.473958 C 295.14375 122.994219 296.38125 123.568333 296.67 122.329661 C 296.954167 120.996615 296.954167 119.56526 296.67 118.232214 C 296.4775 117.756406 296.38125 117.280599 296.097083 116.710417 C 295.812917 115.947552 295.716667 115.184687 296.57375 114.901562 C 297.61875 114.52013 297.527083 115.471745 297.61875 116.041927 C 297.9075 116.997474 298.287917 116.710417 298.860833 116.328984 C 300.859167 114.70888 300.575 112.424219 300.098333 110.328307 C 299.621667 107.945339 299.332917 105.37362 297.142083 103.757448 C 296.38125 103.183333 296.000833 102.042969 296.857917 101.374479 C 297.715 100.709922 298.475833 99.47125 299.905833 100.32849 C 300.859167 100.898672 301.90875 101.280104 302.8575 101.850286 C 303.907083 102.424401 304.57625 103.470391 304.667917 104.709062 C 304.57625 108.802578 307.05125 111.755729 308.669167 115.184687 C 309.242083 116.041927 309.43 116.997474 309.145833 117.949089 C 309.049583 118.424896 308.669167 118.900703 308.1925 118.613646 C 306.478333 117.473281 306.670833 118.806328 306.574583 119.757943 C 306.194167 122.711094 303.622917 124.71263 300.762917 124.425573 Z M 300.762917 124.425573 " transform="matrix(0.852273,0,0,0.993377,0,0)"/>
<path style="fill:none;stroke-width:2;stroke-linecap:butt;stroke-linejoin:miter;stroke:rgb(100%,100%,100%);stroke-opacity:1;stroke-miterlimit:10;" d="M 286.09625 268.630573 C 288.383333 269.582187 289.80875 270.915234 289.240417 273.392578 C 291.43125 275.775547 288.475 276.632786 287.906667 278.252891 C 287.714167 278.728698 287.14125 278.728698 286.669167 278.630391 C 286.1925 278.536016 285.619583 278.347266 285.619583 277.678776 C 285.715833 276.915911 285.239167 276.153047 284.57 275.775547 C 283.905417 275.582865 283.62125 274.823932 283.809167 274.249818 C 283.809167 274.155443 283.905417 273.966693 284.001667 273.868385 C 284.382083 273.486953 284.382083 272.822396 284.001667 272.440964 C 283.712917 272.153906 283.42875 272.346589 283.144583 272.440964 C 282.475417 272.822396 282.667917 273.392578 282.952083 273.966693 C 283.048333 274.155443 283.23625 274.536875 283.144583 274.725625 C 281.522083 277.014219 282.855833 279.585938 282.379167 281.964974 C 282.2875 282.727839 279.807917 284.442318 279.143333 284.253568 C 278.19 283.872135 278.377917 283.109271 278.666667 282.440781 C 279.047083 281.489167 279.239583 280.443177 279.239583 279.393255 C 279.239583 278.536016 278.762917 277.773151 278.09375 277.202969 C 276.475833 275.964297 276.379583 274.536875 277.617083 273.011146 C 278.474167 271.965156 278.859167 270.537734 278.859167 269.200755 C 278.762917 268.060391 279.239583 267.010469 280.000417 266.251536 C 280.477083 265.870104 280.76125 265.10724 280.56875 264.533125 C 280.188333 262.248464 281.334167 260.628359 282.667917 258.819505 C 284.47375 256.440469 286.669167 256.440469 289.240417 256.440469 C 292.47625 256.534844 294.763333 254.820365 296.67 252.343021 C 297.142083 251.678464 297.715 250.341484 298.668333 250.915599 C 299.621667 251.485781 298.764583 252.630078 298.384167 253.487318 C 297.142083 256.342161 294.190417 258.154948 291.04625 258.056641 C 288.76375 258.154948 286.572917 258.819505 284.66625 260.152552 C 283.3325 261.202474 282.667917 262.822578 283.048333 264.533125 C 283.144583 265.390365 283.905417 266.251536 284.7625 265.10724 C 286.09625 263.298385 288.287083 263.39276 290.0975 262.629896 C 290.954583 262.248464 290.954583 263.011328 290.665833 263.679818 C 289.620833 265.771797 288.094583 267.486276 286.09625 268.630573 Z M 286.09625 268.630573 " transform="matrix(0.852273,0,0,0.993377,0,0)"/>
<path style="fill:none;stroke-width:2;stroke-linecap:butt;stroke-linejoin:miter;stroke:rgb(100%,100%,100%);stroke-opacity:1;stroke-miterlimit:10;" d="M 258.949167 299.585573 C 257.13875 299.68388 255.236667 299.87263 253.42625 300.254062 C 250.094167 301.205677 246.66125 299.491198 243.425417 300.635495 C 240.565417 301.587109 237.80625 300.348437 234.94625 300.635495 C 233.992917 300.72987 232.947917 299.68388 231.994583 299.015391 C 231.614167 298.728333 231.898333 298.346901 232.090833 297.965469 C 233.135833 295.967865 234.662083 294.823568 236.949167 295.110625 C 238.9475 295.39375 241.042083 295.110625 242.8525 296.730729 C 243.805833 297.682344 247.89875 296.538047 248.948333 295.205 C 249.425 294.442135 250.282083 294.155078 251.139167 294.442135 C 251.519583 294.634818 251.9 294.634818 252.280417 294.634818 C 254.187083 294.060703 255.70875 294.060703 256.474167 296.443672 C 256.758333 297.300911 257.904167 296.538047 258.56875 296.443672 C 259.237917 296.349297 260.282917 295.87349 260.855833 296.730729 C 261.424167 297.395286 261.616667 298.252526 261.23625 299.109766 C 260.855833 299.967005 259.99875 299.778255 258.949167 299.585573 Z M 258.949167 299.585573 " transform="matrix(0.852273,0,0,0.993377,0,0)"/>
<path style="fill:none;stroke-width:2;stroke-linecap:butt;stroke-linejoin:miter;stroke:rgb(100%,100%,100%);stroke-opacity:1;stroke-miterlimit:10;" d="M 282.667917 200.719896 C 282.475417 201.765885 282.095 202.910182 281.618333 203.861797 C 280.56875 205.481901 280.76125 207.672187 281.907083 209.197917 C 282.475417 210.051224 283.048333 211.195521 284.093333 209.481042 C 284.57 209.005234 285.239167 208.816484 285.90375 209.099609 C 286.669167 209.292292 287.2375 209.575417 287.714167 208.718177 C 287.810417 208.623802 287.906667 208.529427 288.094583 208.529427 C 288.475 208.435052 289.144167 208.623802 289.047917 208.910859 C 288.57125 210.432656 290.574167 211.289896 290.00125 212.626875 C 289.620833 213.385807 288.6675 212.815625 288.094583 212.339818 C 285.812083 210.719714 283.62125 211.769635 281.618333 212.72125 C 280.477083 213.291432 279.62 213.672865 278.666667 212.626875 C 277.617083 211.388203 276.66375 210.149531 275.715 208.718177 C 275.045833 207.577812 274.18875 206.622266 275.238333 204.911719 C 275.81125 204.054479 275.715 201.86026 275.33 200.244089 C 275.142083 199.288542 275.142083 198.336927 275.42625 197.385312 C 275.61875 196.622448 276.095417 196.146641 276.85625 196.335391 C 277.9975 196.528073 279.239583 197.196562 280.477083 196.528073 C 280.56875 196.528073 280.95375 196.716823 280.95375 196.81513 C 280.95375 198.336927 282.095 199.481224 282.667917 200.719896 Z M 282.667917 200.719896 " transform="matrix(0.852273,0,0,0.993377,0,0)"/>
<path style="fill:none;stroke-width:2;stroke-linecap:butt;stroke-linejoin:miter;stroke:rgb(100%,100%,100%);stroke-opacity:1;stroke-miterlimit:10;" d="M 296.857917 236.436901 C 293.237083 236.248151 293.237083 236.149844 293.333333 232.720885 C 293.333333 232.245078 293.429583 231.769271 292.856667 231.580521 C 292.288333 231.387839 291.811667 231.293464 291.619167 231.674896 C 290.858333 233.295 288.76375 232.245078 287.810417 233.578125 C 287.52625 234.057865 287.049583 233.389375 286.953333 232.913568 C 286.760833 232.056328 287.2375 231.199089 287.998333 230.817656 C 288.6675 230.530599 289.144167 229.960417 289.428333 229.291927 C 289.905 228.151562 290.665833 227.77013 291.907917 228.434687 C 292.856667 229.008802 294.286667 227.77013 294.570833 226.244401 C 294.667083 225.674219 294.570833 225.005729 295.24 224.816979 C 296.097083 224.624297 296.67 223.767057 296.57375 222.91375 C 296.57375 222.815443 296.4775 222.626693 296.4775 222.532318 C 296.285 221.958203 296.57375 221.293646 297.238333 221.576771 C 298.475833 222.05651 300.002083 222.532318 300.47875 223.865365 C 300.859167 225.292786 301.432083 226.720208 302.000417 228.053255 C 302.765833 229.578984 301.143333 230.628906 301.047083 232.056328 C 301.047083 232.43776 300.575 232.245078 300.19 232.056328 C 299.809583 231.863646 299.717917 231.104714 299.145 231.580521 C 298.668333 231.961953 298.668333 232.720885 298.9525 233.200625 C 298.9525 233.295 299.04875 233.295 299.04875 233.389375 C 300.002083 235.768411 299.332917 236.531276 296.857917 236.436901 Z M 296.857917 236.436901 " transform="matrix(0.852273,0,0,0.993377,0,0)"/>
<path style="fill:none;stroke-width:2;stroke-linecap:butt;stroke-linejoin:miter;stroke:rgb(100%,100%,100%);stroke-opacity:1;stroke-miterlimit:10;" d="M 133.22375 16.700443 C 134.46125 16.889193 134.5575 17.557682 134.26875 18.414922 C 133.700417 19.936719 132.366667 20.510833 131.032917 20.986641 C 126.935417 22.225312 123.314583 24.604349 120.459167 27.844557 C 119.505833 28.890547 117.984167 29.271979 117.41125 30.892083 C 116.838333 32.512187 116.17375 34.226667 116.838333 35.941146 C 117.127083 36.605703 117.315 37.274193 116.27 37.462943 C 114.555833 37.75 112.837083 35.941146 112.1725 34.509792 C 110.935 31.654948 113.222083 30.605026 114.555833 29.083229 C 117.030833 26.318828 119.88625 23.939792 122.4575 21.269766 C 123.507083 19.936719 125.125 19.177786 126.839167 19.079479 C 128.649583 19.079479 130.36375 18.414922 131.6975 17.365 C 132.174167 17.081875 132.650833 16.889193 133.22375 16.700443 Z M 133.22375 16.700443 " transform="matrix(0.852273,0,0,0.993377,0,0)"/>
<path style="fill:none;stroke-width:2;stroke-linecap:butt;stroke-linejoin:miter;stroke:rgb(100%,100%,100%);stroke-opacity:1;stroke-miterlimit:10;" d="M 291.907917 96.612474 C 291.522917 95.660859 291.811667 94.516562 292.765 94.040755 C 293.333333 93.564948 292.47625 92.231901 291.907917 91.469036 C 291.43125 90.898854 290.858333 90.32474 290.381667 89.754557 C 289.905 89.184375 289.620833 88.708568 290.00125 87.945703 C 290.381667 87.371589 291.1425 87.277214 291.811667 87.469896 C 292.38 87.564271 292.952917 87.753021 293.429583 88.040078 C 295.24 88.897318 297.430833 88.515885 298.860833 87.182839 C 300.47875 85.755417 300.666667 87.564271 301.432083 87.945703 C 302.380833 88.327135 302.380833 88.991693 301.71625 89.754557 C 300.762917 90.898854 300.002083 92.039219 300.666667 93.659323 C 301.047083 94.516562 300.3825 94.99237 299.621667 95.185052 C 298.860833 95.373802 298.095417 95.373802 297.238333 95.373802 C 295.904583 95.468177 295.14375 95.943984 296.097083 97.280964 C 297.050417 98.61401 295.620417 98.995443 295.24 99.66 C 294.763333 100.611615 294.190417 99.754375 293.81 99.278568 C 293.049167 98.61401 291.23875 98.708385 291.907917 96.612474 Z M 291.907917 96.612474 " transform="matrix(0.852273,0,0,0.993377,0,0)"/>
<path style="fill:none;stroke-width:2;stroke-linecap:butt;stroke-linejoin:miter;stroke:rgb(100%,100%,100%);stroke-opacity:1;stroke-miterlimit:10;" d="M 142.651667 256.440469 C 142.459167 254.72599 143.128333 253.20026 143.605 251.580156 C 143.985417 250.341484 145.415417 250.058359 146.460417 251.009974 C 148.65125 253.01151 149.985 255.771979 150.1775 258.72513 C 150.365417 261.391224 147.41375 263.298385 144.8425 262.629896 C 144.177917 262.441146 143.605 261.867031 143.50875 261.104167 C 142.935833 259.58237 142.651667 258.056641 142.651667 256.440469 Z M 142.651667 256.440469 " transform="matrix(0.852273,0,0,0.993377,0,0)"/>
<path style="fill:none;stroke-width:2;stroke-linecap:butt;stroke-linejoin:miter;stroke:rgb(100%,100%,100%);stroke-opacity:1;stroke-miterlimit:10;" d="M 287.810417 139.76151 C 287.810417 139.76151 288.287083 138.809896 287.14125 139.187396 C 285.812083 139.663203 284.955 139.093021 284.7625 138.047031 C 284.57 136.710052 285.427083 135.475313 286.669167 135.188255 C 290.00125 133.855208 291.23875 134.712448 291.715417 138.428464 C 291.907917 139.76151 292.288333 141.094557 291.811667 142.427604 C 291.715417 142.903411 291.715417 143.379219 291.04625 143.379219 C 289.905 143.379219 287.810417 141.377682 287.810417 139.76151 Z M 287.810417 139.76151 " transform="matrix(0.852273,0,0,0.993377,0,0)"/>
<path style="fill:none;stroke-width:2;stroke-linecap:butt;stroke-linejoin:miter;stroke:rgb(100%,100%,100%);stroke-opacity:1;stroke-miterlimit:10;" d="M 274.0925 176.143073 C 273.808333 178.813099 273.615833 181.384818 273.331667 183.858229 C 273.331667 184.239661 273.331667 184.715469 272.855 184.813776 C 272.378333 184.908151 272.190417 184.526719 271.90625 184.239661 C 269.330417 181.479193 269.04625 177.381745 271.044583 174.239844 C 271.425 173.669661 271.997917 173.001172 272.75875 173.193854 C 273.524167 173.382604 273.615833 174.145469 273.712083 174.715651 C 274.000833 175.191458 274.0925 175.667266 274.0925 176.143073 Z M 274.0925 176.143073 " transform="matrix(0.852273,0,0,0.993377,0,0)"/>
<path style="fill:none;stroke-width:2;stroke-linecap:butt;stroke-linejoin:miter;stroke:rgb(100%,100%,100%);stroke-opacity:1;stroke-miterlimit:10;" d="M 292.856667 295.967865 C 292.38 296.06224 291.811667 295.775182 291.715417 295.205 C 291.715417 295.012318 291.715417 294.823568 291.715417 294.729193 C 291.811667 294.253385 291.907917 293.490521 292.192083 293.301771 C 295.33625 291.394609 297.142083 287.776901 301.143333 287.108411 C 301.335833 287.014036 301.52375 287.014036 301.71625 286.919661 C 302.289167 286.726979 302.95375 285.586615 303.526667 286.443854 C 304.095 287.297161 303.05 288.060026 302.289167 288.347083 C 299.621667 289.298698 298.095417 291.587292 296.67 293.777578 C 295.812917 295.110625 294.382917 295.87349 292.856667 295.967865 Z M 292.856667 295.967865 " transform="matrix(0.852273,0,0,0.993377,0,0)"/>
<path style="fill:none;stroke-width:2;stroke-linecap:butt;stroke-linejoin:miter;stroke:rgb(100%,100%,100%);stroke-opacity:1;stroke-miterlimit:10;" d="M 154.17875 4.604714 C 153.98625 5.650703 154.462917 6.696693 155.41625 7.176432 C 155.700417 7.365182 155.989167 7.553932 156.177083 7.746615 C 156.937917 8.509479 157.034167 9.748151 156.46125 10.605391 C 155.892917 11.557005 154.747083 10.982891 153.98625 10.605391 C 153.129167 10.125651 152.46 9.366719 152.272083 8.316797 C 152.079583 7.365182 151.602917 6.507943 150.938333 5.839453 C 150.08125 5.080521 150.461667 4.124974 151.034583 3.366042 C 151.51125 2.791927 151.891667 1.840312 152.845 2.31612 C 153.79375 2.603177 154.366667 3.649167 154.17875 4.604714 Z M 154.17875 4.604714 " transform="matrix(0.852273,0,0,0.993377,0,0)"/>
<path style="fill:none;stroke-width:2;stroke-linecap:butt;stroke-linejoin:miter;stroke:rgb(100%,100%,100%);stroke-opacity:1;stroke-miterlimit:10;" d="M 278.377917 224.911354 C 278.28625 225.481536 278.09375 225.961276 277.809583 226.437083 C 276.095417 229.103177 274.285 231.769271 272.474583 234.34099 C 272.094167 234.816797 271.6175 235.674036 270.952917 235.292604 C 270.28375 234.911172 270.567917 233.865182 271.044583 233.200625 C 272.190417 231.580521 273.331667 229.866042 274.569167 228.340312 C 275.5225 227.199948 276.095417 225.768594 276.095417 224.246797 C 276.095417 223.578307 275.81125 222.532318 276.76 222.43401 C 277.713333 222.339635 277.905833 223.389557 278.19 224.054115 C 278.28625 224.341172 278.377917 224.624297 278.377917 224.911354 Z M 278.377917 224.911354 " transform="matrix(0.852273,0,0,0.993377,0,0)"/>
<path style="fill:none;stroke-width:2;stroke-linecap:butt;stroke-linejoin:miter;stroke:rgb(100%,100%,100%);stroke-opacity:1;stroke-miterlimit:10;" d="M 26.927083 66.703464 C 29.117917 66.801771 31.2125 68.229193 30.92375 69.56224 C 30.832083 70.608229 30.066667 71.563776 28.925417 71.658151 C 27.972083 71.752526 24.73625 69.086432 24.827917 68.417943 C 25.116667 67.371953 25.685 66.609089 26.927083 66.703464 Z M 26.927083 66.703464 " transform="matrix(0.852273,0,0,0.993377,0,0)"/>
<path style="fill:none;stroke-width:2;stroke-linecap:butt;stroke-linejoin:miter;stroke:rgb(100%,100%,100%);stroke-opacity:1;stroke-miterlimit:10;" d="M 290.954583 222.150885 C 291.04625 223.29125 289.620833 224.341172 290.0975 225.862969 C 290.285417 226.437083 289.240417 226.531458 288.6675 226.244401 C 287.906667 225.862969 286.669167 225.481536 287.14125 224.435547 C 287.714167 223.389557 287.906667 222.150885 287.906667 221.006589 C 287.906667 220.243724 288.57125 219.673542 289.332083 219.767917 C 289.428333 219.767917 289.524583 219.767917 289.620833 219.767917 C 290.762083 220.054974 290.762083 221.006589 290.954583 222.150885 Z M 290.954583 222.150885 " transform="matrix(0.852273,0,0,0.993377,0,0)"/>
<path style="fill:none;stroke-width:2;stroke-linecap:butt;stroke-linejoin:miter;stroke:rgb(100%,100%,100%);stroke-opacity:1;stroke-miterlimit:10;" d="M 308.385 247.962448 C 308.953333 247.868073 309.049583 246.629401 309.906667 247.105208 C 310.76375 247.581016 310.002917 248.151198 310.002917 248.630937 C 310.002917 248.819687 310.002917 249.008437 310.002917 249.20112 C 310.099167 249.865677 311.529167 250.247109 310.86 250.915599 C 310.190833 251.580156 308.48125 251.297031 307.812083 252.437396 C 307.624167 252.248646 307.335417 252.154271 307.335417 251.961589 C 306.955 250.915599 306.574583 249.865677 306.285833 248.819687 C 306.097917 247.962448 306.194167 246.912526 306.955 246.531094 C 307.908333 246.153594 307.715833 247.581016 308.385 247.962448 Z M 308.385 247.962448 " transform="matrix(0.852273,0,0,0.993377,0,0)"/>
<path style="fill:none;stroke-width:2;stroke-linecap:butt;stroke-linejoin:miter;stroke:rgb(100%,100%,100%);stroke-opacity:1;stroke-miterlimit:10;" d="M 316.575417 263.011328 C 316.575417 263.868568 315.90625 264.057318 315.241667 264.155625 C 313.147083 264.344375 311.144167 264.820182 309.242083 265.583047 C 308.765417 265.771797 308.1925 265.866172 307.908333 265.29599 C 307.624167 264.725807 308.004583 264.25 308.48125 263.962943 C 310.575833 262.916953 312.766667 262.154089 315.049167 261.772656 C 315.814583 261.583906 316.382917 262.248464 316.575417 263.011328 Z M 316.575417 263.011328 " transform="matrix(0.852273,0,0,0.993377,0,0)"/>
<path style="fill:none;stroke-width:2;stroke-linecap:butt;stroke-linejoin:miter;stroke:rgb(100%,100%,100%);stroke-opacity:1;stroke-miterlimit:10;" d="M 295.716667 216.531641 C 294.286667 216.150208 293.049167 215.387344 292.095833 214.243047 C 291.619167 213.76724 291.619167 213.004375 292.095833 212.626875 C 292.192083 212.528568 292.38 212.434193 292.47625 212.339818 C 293.525833 211.86401 294.763333 211.289896 295.524167 212.72125 C 296.000833 213.76724 296.38125 214.718854 296.67 215.768776 C 297.142083 216.626016 296.193333 216.338958 295.716667 216.531641 Z M 295.716667 216.531641 " transform="matrix(0.852273,0,0,0.993377,0,0)"/>
<path style="fill:none;stroke-width:2;stroke-linecap:butt;stroke-linejoin:miter;stroke:rgb(100%,100%,100%);stroke-opacity:1;stroke-miterlimit:10;" d="M 196.469167 14.317474 C 197.23 14.510156 198.087083 14.411849 198.751667 14.128724 C 199.324583 13.936042 199.8975 14.128724 200.181667 14.698906 C 200.277917 14.793281 200.277917 14.985964 200.277917 15.174714 C 200.374167 15.843203 198.37125 17.840807 197.514167 17.840807 C 196.276667 17.939115 195.227083 17.081875 195.039167 15.843203 C 194.846667 14.698906 195.227083 14.223099 196.469167 14.317474 Z M 196.469167 14.317474 " transform="matrix(0.852273,0,0,0.993377,0,0)"/>
</g>
</svg>
