<svg width="180" height="163" viewBox="0 0 180 163" fill="none" xmlns="http://www.w3.org/2000/svg">
<path d="M88.6567 0.464325C84.5597 1.5779 80.0261 5.1886 77.7425 9.10301C76.6679 10.959 75.8284 13.7598 75.3918 16.8643C74.9552 20.3063 76.2985 24.7944 79.1194 29.1475C79.8246 30.261 80.5634 31.4421 80.7649 31.7458C81.4366 32.8594 85.3993 38.596 85.903 39.2034C86.1716 39.5071 86.5746 40.0808 86.7761 40.4182C86.9776 40.7557 88.0858 42.4429 89.2612 44.1302C90.4366 45.8512 91.3433 47.4709 91.2761 47.7746C91.209 48.1121 90.4702 48.4833 89.3284 48.787C87.1791 49.3269 86.4739 50.0018 87.0784 50.9466C87.5821 51.7565 87.5485 51.7565 91.5112 50.4405C94.7351 49.3606 94.903 49.2594 95.6418 47.8421C96.0784 47.0322 96.8508 45.8174 97.3209 45.1763C97.8246 44.5351 98.3955 43.759 98.5634 43.4553C98.7649 43.1516 99.7388 41.7343 100.746 40.2833C101.754 38.8322 102.761 37.4149 102.929 37.0775C103.131 36.74 103.5 36.2001 103.769 35.8964C104.037 35.5927 104.407 35.0528 104.608 34.7154C104.776 34.3779 105.75 32.9606 106.724 31.5771C107.664 30.1598 108.47 28.945 108.47 28.8438C108.47 28.7425 108.907 28.0339 109.444 27.224C113.104 21.7911 112.769 13.6586 108.638 7.65198C106.321 4.2775 103.231 2.05033 98.7313 0.498069C96.8843 -0.143083 90.9067 -0.176828 88.6567 0.464325ZM95.8769 10.1491C96.7164 10.3853 97.3881 10.689 97.3881 10.824C97.3881 10.959 97.5896 11.094 97.8582 11.094C98.4291 11.094 100.175 13.0512 100.914 14.5022C103.869 20.2051 98.2612 27.5277 92.1157 25.9417C90.4366 25.5368 87.6828 23.9845 87.6493 23.4446C87.6493 23.2421 87.3806 22.8034 87.0112 22.4322C85.1978 20.4075 85.1978 15.447 87.0448 13.4898C87.3806 13.1186 87.6493 12.68 87.6493 12.545C87.6828 12.2075 90.0672 10.689 91.444 10.1828C92.8545 9.67667 94.0299 9.64293 95.8769 10.1491Z" fill="#84AA2A"/>
<path d="M71.5634 54.5911C67.7687 55.9071 66.9627 56.582 67.9366 57.5606C68.5075 58.1343 68.6418 58.1005 71.4627 57.1894C75.3918 55.8734 76.2313 55.4009 76.2313 54.6248C76.2313 53.3088 75.2239 53.3088 71.5634 54.5911Z" fill="#84AA2A"/>
<path d="M52.3209 61.6775C48.9627 63.0948 48.5597 63.3985 48.8284 64.3433C49.1978 65.4907 49.903 65.4569 53.4291 63.9721C57.056 62.4536 57.8619 61.8125 57.1231 60.9014C56.4851 60.1252 55.6119 60.2602 52.3209 61.6775Z" fill="#84AA2A"/>
<path d="M37.2761 68.359C37.0075 68.4602 35.3619 69.2026 33.6493 70.0462C30.7948 71.4635 30.5261 71.666 30.6269 72.4758C30.7948 73.8594 32.0037 73.7244 35.597 71.9022C38.0149 70.7211 38.8209 70.1474 38.8881 69.5738C38.9888 68.7639 38.1157 68.1228 37.2761 68.359Z" fill="#84AA2A"/>
<path d="M17.0933 79.5623C14.4067 81.3845 13.097 82.4981 13.097 82.9705C13.097 83.3754 14.0709 84.3203 14.4739 84.3203C14.6418 84.3203 15.5821 83.7466 16.556 83.038C17.5299 82.3631 18.9403 81.3507 19.7463 80.8108C21.1567 79.8322 21.4925 79.0561 20.7537 78.3137C20.1157 77.6726 19.7463 77.8075 17.0933 79.5623Z" fill="#84AA2A"/>
<path d="M3.05597 92.4865C2.48507 93.2627 1.54478 94.8149 0.940299 95.996C0.0335821 97.7845 -0.0671642 98.1557 0.302239 98.6281C1.17537 99.7079 1.8806 99.2355 3.45896 96.5359C4.33209 95.1186 5.27239 93.5326 5.57463 93.0265C6.07836 92.2841 6.11194 92.0479 5.74254 91.6092C5.00373 90.7318 4.1306 91.0018 3.05597 92.4865Z" fill="#84AA2A"/>
<path d="M0.570895 110.371C0.268657 110.54 0 110.877 0 111.114C0 112.362 2.92164 117.289 4.09701 118.031C4.53358 118.301 4.90298 118.301 5.37313 118.065C6.24627 117.593 6.21269 117.087 5.17164 115.669C4.70149 115.028 3.79478 113.577 3.15672 112.43C1.91418 110.203 1.44403 109.865 0.570895 110.371Z" fill="#84AA2A"/>
<path d="M115.287 112.194C114.817 113.476 115.59 113.847 119.351 114.016C123.683 114.218 124.354 114.05 124.187 112.767L124.086 111.822L119.787 111.721C116.06 111.654 115.489 111.721 115.287 112.194Z" fill="#84AA2A"/>
<path d="M99.2351 112.295C96.2463 112.565 95.0373 113.037 95.0373 114.016C95.0373 115.129 96.1455 115.433 98.8321 115.062C100.175 114.859 101.754 114.657 102.392 114.589C103.769 114.522 104.44 113.645 103.903 112.733C103.466 112.059 102.862 111.991 99.2351 112.295Z" fill="#84AA2A"/>
<path d="M135.47 114.151C134.966 115.501 135.638 116.007 139.366 117.053C140.205 117.289 141.347 117.626 141.952 117.829C143.16 118.234 144.067 117.761 144.067 116.682C144.067 115.905 143.328 115.501 139.937 114.488C136.746 113.577 135.739 113.476 135.47 114.151Z" fill="#84AA2A"/>
<path d="M82.209 114.556C82.1082 114.657 81.1343 114.859 80.0597 115.028C75.7276 115.636 74.2836 116.412 75.2911 117.626C75.7276 118.166 77.2724 118.099 81.4366 117.458C83.5522 117.12 83.9552 116.884 83.9552 115.872C83.9552 114.961 82.7127 114.016 82.209 114.556Z" fill="#84AA2A"/>
<path d="M61.1194 118.403C60.2799 118.571 58.9366 118.808 58.097 118.943C55.8806 119.28 55.3433 119.651 55.4776 120.697C55.5784 121.541 55.7127 121.608 56.9888 121.575C59.2388 121.541 63.2351 120.697 63.9067 120.157C64.209 119.887 64.4776 119.449 64.4776 119.212C64.4776 118.774 63.403 118.031 62.8993 118.099C62.7649 118.133 61.959 118.268 61.1194 118.403Z" fill="#84AA2A"/>
<path d="M39.9627 121.811C38.5858 121.98 37.0075 122.216 36.4366 122.384C35.3284 122.688 34.959 123.566 35.6306 124.375C36.1007 124.915 37.4776 124.882 42.1119 124.207C43.959 123.937 44.7313 123.161 44.1269 122.182C43.6903 121.473 43.1866 121.44 39.9627 121.811Z" fill="#84AA2A"/>
<path d="M153.873 121.845C153.134 122.587 153.47 123.026 156.425 125.388C160.119 128.324 160.119 128.324 160.69 127.851C161.597 127.109 161.261 125.995 159.784 124.78C155.821 121.575 154.713 121.001 153.873 121.845Z" fill="#84AA2A"/>
<path d="M15.4142 122.654C14.944 123.228 15.2799 124.072 16.153 124.51C16.8582 124.882 22.1978 125.59 23.1716 125.455C24.2799 125.287 24.5485 123.701 23.541 123.127C23.0037 122.857 18.2351 122.216 16.0858 122.115C15.9515 122.115 15.6828 122.351 15.4142 122.654Z" fill="#84AA2A"/>
<path d="M167.709 136.456C167.474 137.063 167.608 137.367 169.522 140.775C171.336 144.015 171.806 144.487 172.612 144.049C173.653 143.475 173.418 142.395 171.504 139.156C170.06 136.625 169.59 136.085 168.817 136.017C168.213 135.95 167.843 136.085 167.709 136.456Z" fill="#84AA2A"/>
<path d="M176.172 154.813C175.601 155.454 175.601 155.623 176.34 158.593C176.776 160.314 177.381 162.035 177.683 162.406C178.187 163.047 178.321 163.047 179.127 162.642C180.067 162.136 180.201 161.63 179.664 160.651C179.496 160.347 179.127 158.998 178.825 157.715C178.321 155.556 177.582 154.172 176.978 154.172C176.843 154.172 176.474 154.476 176.172 154.813Z" fill="#84AA2A"/>
</svg>
